<?xml version="1.0" encoding="iso-8859-1"?>
<!-- Generator: Adobe Illustrator 21.1.0, SVG Export Plug-In . SVG Version: 6.00 Build 0)  -->
<svg version="1.1" xmlns="http://www.w3.org/2000/svg" xmlns:xlink="http://www.w3.org/1999/xlink" x="0px" y="0px"
	 viewBox="0 0 480 270" style="enable-background:new 0 0 480 270;" xml:space="preserve">
<g id="Layer_1">
</g>
<g id="The_Features">
	<g>
		<linearGradient id="SVGID_1_" gradientUnits="userSpaceOnUse" x1="283.7262" y1="130.2841" x2="94.7872" y2="209.1052">
			<stop  offset="0" style="stop-color:#49AFC2"/>
			<stop  offset="1" style="stop-color:#0078AE"/>
		</linearGradient>
		<polygon style="fill:url(#SVGID_1_);" points="162,270 323.32,176.863 170.453,88.605 0,187.047 144,270 		"/>
		
			<line style="fill:none;stroke:#D0D2D3;stroke-miterlimit:10;stroke-dasharray:3,3;" x1="151.624" y1="100.026" x2="303.656" y2="187.484"/>
		
			<line style="fill:none;stroke:#D0D2D3;stroke-miterlimit:10;stroke-dasharray:3,3;" x1="130.539" y1="112.2" x2="282.57" y2="199.658"/>
		
			<line style="fill:none;stroke:#D0D2D3;stroke-miterlimit:10;stroke-dasharray:3,3;" x1="109.453" y1="124.374" x2="261.485" y2="211.831"/>
		
			<line style="fill:none;stroke:#D0D2D3;stroke-miterlimit:10;stroke-dasharray:3,3;" x1="88.368" y1="136.547" x2="240.4" y2="224.005"/>
		
			<line style="fill:none;stroke:#D0D2D3;stroke-miterlimit:10;stroke-dasharray:3,3;" x1="67.283" y1="148.721" x2="219.314" y2="236.178"/>
		
			<line style="fill:none;stroke:#D0D2D3;stroke-miterlimit:10;stroke-dasharray:3,3;" x1="46.197" y1="160.894" x2="198.23" y2="248.351"/>
		
			<line style="fill:none;stroke:#D0D2D3;stroke-miterlimit:10;stroke-dasharray:3,3;" x1="25.112" y1="173.068" x2="177.144" y2="260.526"/>
	</g>
	<linearGradient id="SVGID_2_" gradientUnits="userSpaceOnUse" x1="311.895" y1="113.6161" x2="385.6829" y2="113.6161">
		<stop  offset="0" style="stop-color:#49AFC2"/>
		<stop  offset="1" style="stop-color:#0078AE"/>
	</linearGradient>
	<polygon style="opacity:0.26;fill:url(#SVGID_2_);" points="360.036,101.204 349.319,95.016 311.895,116.623 338.903,132.216 
		385.683,105.208 369.392,95.802 	"/>
	<polygon style="opacity:0.3;fill:#49AFC2;" points="425.975,187.855 388.557,209.471 345.337,184.535 382.755,162.918 	"/>
	<polygon style="opacity:0.3;fill:#49AFC2;" points="396.062,148.992 339.935,181.417 302.118,159.597 358.245,127.172 	"/>
	<polygon style="opacity:0.3;fill:#49AFC2;" points="334.133,134.864 296.716,156.48 237.289,122.192 274.707,100.575 	"/>
	<polygon style="opacity:0.3;fill:#49AFC2;" points="334.46,97.246 306.396,113.459 295.592,107.224 323.654,91.012 	"/>
	<polygon style="opacity:0.3;fill:#49AFC2;" points="311.345,83.273 283.283,99.486 272.477,93.251 300.541,77.039 	"/>
	<polygon style="opacity:0.3;fill:#49AFC2;" points="322.902,90.259 294.839,106.472 284.035,100.238 312.097,84.025 	"/>
	<polygon style="opacity:0.3;fill:#49AFC2;" points="269.305,97.458 213.177,129.883 180.763,111.18 236.89,78.755 	"/>
	<polygon style="opacity:0.3;fill:#49AFC2;" points="212.07,80.617 179.312,99.542 163.105,90.19 195.862,71.267 	"/>
	<linearGradient id="SVGID_3_" gradientUnits="userSpaceOnUse" x1="362.9311" y1="128.4855" x2="414.2243" y2="128.4855">
		<stop  offset="0" style="stop-color:#49AFC2"/>
		<stop  offset="1" style="stop-color:#0078AE"/>
	</linearGradient>
	<polygon style="opacity:0.26;fill:url(#SVGID_3_);" points="414.224,132.489 395.512,143.292 362.931,124.482 381.642,113.679 	"/>
	<polygon style="opacity:0.3;fill:#49AFC2;" points="438.642,168.159 419.932,178.968 387.347,160.166 406.055,149.358 	"/>
	<polygon style="opacity:0.1;fill:#49AFC2;" points="480,219.026 442.581,240.643 393.959,212.589 431.378,190.972 	"/>
	<polygon style="opacity:0.1;fill:#49AFC2;" points="431.682,239.568 408.297,253.079 375.881,234.376 399.268,220.865 	"/>
	<polygon style="opacity:0.3;fill:#49AFC2;" points="393.866,217.749 361.125,236.663 328.71,217.96 361.45,199.046 	"/>
	<polygon style="opacity:0.3;fill:#49AFC2;" points="356.049,195.928 313.954,220.247 276.136,198.427 318.231,174.109 	"/>
	<linearGradient id="SVGID_4_" gradientUnits="userSpaceOnUse" x1="539.6409" y1="203.8146" x2="253.8651" y2="57.0649">
		<stop  offset="0" style="stop-color:#49AFC2"/>
		<stop  offset="1" style="stop-color:#0078AE"/>
	</linearGradient>
	<polygon style="fill:url(#SVGID_4_);" points="359.313,95.385 348.595,89.197 311.172,110.804 338.18,126.396 384.959,99.389 
		368.668,89.983 	"/>
	<linearGradient id="SVGID_5_" gradientUnits="userSpaceOnUse" x1="515.543" y1="250.7436" x2="229.7658" y2="103.9932">
		<stop  offset="0" style="stop-color:#49AFC2"/>
		<stop  offset="1" style="stop-color:#0078AE"/>
	</linearGradient>
	<polygon style="opacity:0.5;fill:url(#SVGID_5_);" points="479.258,213.25 441.835,234.857 393.22,206.789 430.645,185.183 	"/>
	<linearGradient id="SVGID_6_" gradientUnits="userSpaceOnUse" x1="500.0177" y1="280.9765" x2="214.2413" y2="134.2265">
		<stop  offset="0" style="stop-color:#49AFC2"/>
		<stop  offset="1" style="stop-color:#0078AE"/>
	</linearGradient>
	<polygon style="opacity:0.5;fill:url(#SVGID_6_);" points="430.936,233.779 407.546,247.283 375.137,228.571 398.527,215.067 	"/>
	<linearGradient id="SVGID_7_" gradientUnits="userSpaceOnUse" x1="498.9244" y1="283.1041" x2="213.1496" y2="136.3549">
		<stop  offset="0" style="stop-color:#49AFC2"/>
		<stop  offset="1" style="stop-color:#0078AE"/>
	</linearGradient>
	<polygon style="opacity:0.8;fill:url(#SVGID_7_);" points="393.125,211.949 360.38,230.854 327.969,212.143 360.716,193.237 	"/>
	<linearGradient id="SVGID_8_" gradientUnits="userSpaceOnUse" x1="497.9016" y1="285.0957" x2="212.1264" y2="138.3463">
		<stop  offset="0" style="stop-color:#49AFC2"/>
		<stop  offset="1" style="stop-color:#0078AE"/>
	</linearGradient>
	<polygon style="fill:url(#SVGID_8_);" points="355.314,190.118 313.212,214.426 275.401,192.596 317.503,168.288 	"/>
	<linearGradient id="SVGID_9_" gradientUnits="userSpaceOnUse" x1="516.8742" y1="248.1509" x2="231.0979" y2="101.4009">
		<stop  offset="0" style="stop-color:#49AFC2"/>
		<stop  offset="1" style="stop-color:#0078AE"/>
	</linearGradient>
	<polygon style="fill:url(#SVGID_9_);" points="425.243,182.064 387.819,203.671 344.606,178.722 382.03,157.115 	"/>
	<linearGradient id="SVGID_10_" gradientUnits="userSpaceOnUse" x1="522.2129" y1="237.7556" x2="236.4365" y2="91.0056">
		<stop  offset="0" style="stop-color:#49AFC2"/>
		<stop  offset="1" style="stop-color:#0078AE"/>
	</linearGradient>
	<polygon style="fill:url(#SVGID_10_);" points="395.34,143.194 339.205,175.603 301.393,153.773 357.529,121.364 	"/>
	<linearGradient id="SVGID_11_" gradientUnits="userSpaceOnUse" x1="519.4665" y1="243.1027" x2="233.6906" y2="96.3529">
		<stop  offset="0" style="stop-color:#49AFC2"/>
		<stop  offset="1" style="stop-color:#0078AE"/>
	</linearGradient>
	<polygon style="fill:url(#SVGID_11_);" points="333.416,129.047 295.991,150.654 236.574,116.35 273.998,94.743 	"/>
	<linearGradient id="SVGID_12_" gradientUnits="userSpaceOnUse" x1="536.2654" y1="210.388" x2="250.4888" y2="63.6379">
		<stop  offset="0" style="stop-color:#49AFC2"/>
		<stop  offset="1" style="stop-color:#0078AE"/>
	</linearGradient>
	<polygon style="fill:url(#SVGID_12_);" points="333.752,91.43 305.684,107.635 294.881,101.398 322.949,85.193 	"/>
	<linearGradient id="SVGID_13_" gradientUnits="userSpaceOnUse" x1="537.1226" y1="208.7173" x2="251.349" y2="61.9687">
		<stop  offset="0" style="stop-color:#49AFC2"/>
		<stop  offset="1" style="stop-color:#0078AE"/>
	</linearGradient>
	<polygon style="fill:url(#SVGID_13_);" points="310.641,77.452 282.574,93.657 271.771,87.419 299.838,71.214 	"/>
	<linearGradient id="SVGID_14_" gradientUnits="userSpaceOnUse" x1="536.6948" y1="209.5533" x2="250.9193" y2="62.8038">
		<stop  offset="0" style="stop-color:#49AFC2"/>
		<stop  offset="1" style="stop-color:#0078AE"/>
	</linearGradient>
	<polygon style="fill:url(#SVGID_14_);" points="322.197,84.441 294.128,100.646 283.326,94.409 311.393,78.204 	"/>
	<linearGradient id="SVGID_15_" gradientUnits="userSpaceOnUse" x1="516.6507" y1="248.5871" x2="230.8745" y2="101.8372">
		<stop  offset="0" style="stop-color:#49AFC2"/>
		<stop  offset="1" style="stop-color:#0078AE"/>
	</linearGradient>
	<polygon style="fill:url(#SVGID_15_);" points="268.597,91.624 212.461,124.034 180.052,105.323 236.188,72.913 	"/>
	<linearGradient id="SVGID_16_" gradientUnits="userSpaceOnUse" x1="516.5296" y1="248.8264" x2="230.752" y2="102.0758">
		<stop  offset="0" style="stop-color:#49AFC2"/>
		<stop  offset="1" style="stop-color:#0078AE"/>
	</linearGradient>
	<polygon style="fill:url(#SVGID_16_);" points="211.366,74.769 178.605,93.685 162.4,84.328 195.162,65.413 	"/>
	<polygon style="fill:#70CACC;" points="301.73,116.155 273.663,132.361 246.654,116.768 274.722,100.563 	"/>
	<polygon style="fill:#70CACC;" points="323.336,128.63 295.268,144.835 292.567,143.275 320.636,127.07 	"/>
	<polygon style="fill:#70CACC;" points="309.832,120.834 281.765,137.038 279.064,135.48 307.131,119.274 	"/>
	<polygon style="fill:#70CACC;" points="314.334,123.432 286.265,139.637 283.565,138.078 311.633,121.873 	"/>
	<polygon style="fill:#70CACC;" points="318.835,126.031 290.768,142.236 288.066,140.677 316.135,124.472 	"/>
	<polygon style="fill:#49AFC2;" points="258.517,91.207 211.738,118.215 209.037,116.656 255.816,89.648 	"/>
	<polygon style="fill:#49AFC2;" points="239.611,80.292 192.832,107.3 190.132,105.741 236.911,78.733 	"/>
	<polygon style="fill:#49AFC2;" points="245.914,83.93 199.134,110.938 196.433,109.379 243.213,82.37 	"/>
	<polygon style="fill:#49AFC2;" points="252.215,87.568 205.436,114.577 202.735,113.018 249.515,86.009 	"/>
	<linearGradient id="SVGID_17_" gradientUnits="userSpaceOnUse" x1="540.9429" y1="201.2799" x2="255.1674" y2="54.5303">
		<stop  offset="0" style="stop-color:#49AFC2"/>
		<stop  offset="1" style="stop-color:#0078AE"/>
	</linearGradient>
	<polygon style="fill:url(#SVGID_17_);" points="413.5,126.669 394.788,137.473 362.208,118.662 380.919,107.859 	"/>
	<linearGradient id="SVGID_18_" gradientUnits="userSpaceOnUse" x1="531.5305" y1="219.6114" x2="245.7529" y2="72.8608">
		<stop  offset="0" style="stop-color:#49AFC2"/>
		<stop  offset="1" style="stop-color:#0078AE"/>
	</linearGradient>
	<polygon style="fill:url(#SVGID_18_);" points="437.915,162.373 419.203,173.175 386.622,154.365 405.334,143.562 	"/>
	<polygon style="fill:#49AFC2;" points="361.871,156.28 338.481,169.784 311.473,154.191 334.864,140.687 	"/>
	<polygon style="fill:#49AFC2;" points="385.261,142.776 366.549,153.579 339.541,137.986 358.253,127.182 	"/>
	<polygon style="fill:#70CACC;" points="340.602,106.188 331.245,111.589 320.527,105.402 329.884,100 	"/>
	<polygon style="fill:#49AFC2;" points="349.957,100.787 340.602,106.188 329.884,100 339.239,94.599 	"/>
	<polygon style="fill:#70CACC;" points="359.313,95.385 349.957,100.787 339.239,94.599 348.595,89.197 	"/>
	<polygon style="fill:#0078AE;" points="273.663,132.361 267.394,120.386 282.294,121.139 275.958,109.199 293.626,111.477 
		301.73,116.155 	"/>
	<path style="fill:#0078AE;" d="M272.257,110.116c1.188,0.687,1.318,1.726,0.288,2.32c-1.03,0.595-2.83,0.521-4.019-0.166
		c-1.189-0.686-1.318-1.725-0.288-2.32C269.268,109.354,271.067,109.429,272.257,110.116z"/>
	<path style="fill:#70CACC;" d="M299.624,93.604c0.429-0.011,0.807-0.107,1.077-0.263c0.27-0.156,0.439-0.374,0.457-0.623
		l0.237-3.444l-3.747-0.392l-0.181,2.591l-4.687,0.106l0.68,2.165L299.624,93.604z"/>
	<path style="fill:#70CACC;" d="M310.426,87.808c0.431-0.011,0.808-0.108,1.079-0.264c0.271-0.156,0.438-0.374,0.456-0.622
		l0.237-3.444l-3.747-0.393l-0.181,2.592l-4.687,0.107l0.681,2.165L310.426,87.808z"/>
	<path style="fill:#70CACC;" d="M321.982,94.797c0.431-0.011,0.808-0.107,1.078-0.264c0.271-0.156,0.439-0.374,0.457-0.622
		l0.236-3.444l-3.746-0.393l-0.181,2.591l-4.687,0.106l0.681,2.165L321.982,94.797z"/>
	<path style="fill:#70CACC;" d="M304.554,185.12c-5.166,2.983-4.519,8.194,1.448,11.639c5.966,3.444,14.993,3.818,20.159,0.835
		c5.166-2.982,4.519-8.194-1.448-11.638C318.747,182.51,309.721,182.138,304.554,185.12z M324.27,196.502
		c-4.257,2.458-11.717,2.148-16.631-0.689c-4.915-2.837-5.45-7.145-1.194-9.602c4.255-2.457,11.716-2.147,16.631,0.69
		C327.991,189.738,328.526,194.046,324.27,196.502z"/>
	<polygon style="fill:#70CACC;" points="318.995,189.317 319.68,194.828 316.83,194.709 316.347,190.846 309.459,190.56 
		309.254,188.914 	"/>
	<path style="opacity:0.5;fill:#0078AE;" d="M178.775,219.007c0,2.419-1.599,4.838-4.795,6.683l-68.65,41.542
		c-6.394,3.69-16.761,3.69-23.154,0L12.719,227.13c-3.196-1.845-4.795-4.264-4.795-6.683c0-2.419,1.599-4.838,4.795-6.684
		l68.651-41.541c6.393-3.691,16.759-3.691,23.152,0l69.458,40.101C177.176,214.17,178.775,216.589,178.775,219.007z"/>
	<path style="fill:#49AFC2;" d="M178.775,208.468c0,2.419-1.599,4.838-4.795,6.683l-68.65,41.542c-6.394,3.69-16.761,3.69-23.154,0
		l-69.457-40.102c-3.196-1.846-4.795-4.264-4.795-6.683c0-2.419,1.599-4.839,4.795-6.685l68.651-41.541
		c6.393-3.691,16.759-3.691,23.152,0l69.458,40.101C177.176,203.631,178.775,206.05,178.775,208.468z"/>
	<path style="fill:#0078AE;" d="M157.15,206.733c1.955,0.729-9.229,9.62-24.98,19.86c-15.751,10.239-30.104,17.95-32.059,17.221
		c-1.955-0.729,11.439-11.058,24.98-19.86C141.21,213.475,155.196,206.005,157.15,206.733"/>
	<path style="fill:#EDF7FA;" d="M129.848,198.359c-0.882,0.575-2.249,1.036-6.12,0.288c-3.87-0.748-8.151-1.303-8.151-1.303
		c1.087-0.706,1.211-1.285,1.211-1.285c-1.093,0.357-3.904,0.976-6.447,1.138c-2.544,0.164-7.688,1.094-7.688,1.094l-4.717-1.759
		c-3.193-1.191-3.687-3.424-3.687-3.424c-1.358,0.883-0.754,1.768-0.754,1.768l-6.731-2.51c-6.662-2.484-6.351-5.738-6.351-5.738
		c-1.089,0.637-1.283,1.259-1.283,1.259c-4.451-2.145-4.432-3.649-4.432-3.649c-6.89,2.988-6.658,6.173-6.658,6.173
		c-3.595-0.714-2.941-2.915-2.941-2.915c-3.409,1.577-4.878,3.385-4.878,3.385c-4.372-1.63-4.13-3.28-4.13-3.28
		c-8.488,5.518-6.786,11.084-6.786,11.084c-3.115-0.815-4.798-2.207-4.798-2.207c-4.678,6.661,0.987,10.995,0.987,10.995
		c-1.862-0.137-4.923-1.21-4.923-1.21s2.416,4.374,5.83,6.273c3.413,1.898,16.121,5.455,16.121,5.455s-1.236,0.095-2.529,0.793
		c0,0,2.609-0.276,5.732,0.888c0,0-0.891,0.154-1.499,0.761c0,0,2.47-0.398,4.618,0.264c0,0-0.453,1.36-0.226,2.278
		c0,0-1.221,0.864-1.691,1.383c0,0,1.711-0.474,2.469-0.4c0,0,0.139,3.317,1.215,5.386c0,0,0.525-1.263,1.821-1.822
		c0,0,0.534,2.492,4.367,4.684c0,0,0.532-0.912,1.285-1.117c0,0,1.555,1.97,4.543,3.152l-0.592,1.307l1.986-0.44
		c0,0,2.864,1.971,4.812,2.905c0,0-0.015-0.7,0.32-1.13c0,0,2.551,0.187,4.957,0.042c2.408-0.145,5.895-1.206,7.254-2.089
		l2.45-1.697c1.08,0.727,1.639,1.573,0.385,2.452l0.094,0.185c-0.03,0.017-0.059,0.034-0.086,0.051
		c0.382,0.169-0.35,0.72-0.288,0.968c0.185,0.758,0.851,1.531,1.56,2.145c0.52,0.45,0.637,0.374,1.256,0.782
		c0.202,0.133,0.216,0.407,0.391,0.562c0.481-0.571,2.345-1.955,3.334-2.681l0.986,0.35c0,0,0.345-0.052,0.758-0.197
		c0.008-0.007,0.015-0.015,0.029-0.022c0.106-0.062,0.217-0.119,0.336-0.17c1.459-1.099,2.854-1.723,4.558-2.992
		c0.318-0.252,0.607-0.491,0.739-0.768c-0.186-0.16-0.191-0.175-0.504-0.335c-0.054-0.029-0.119-0.053-0.181-0.092
		c0.024-0.021,0.048-0.041,0.072-0.062c0.007-0.009,0.021-0.021,0.057-0.046c0.005-0.006,0.01-0.013,0.016-0.018
		c0.029-0.02,0.054-0.04,0.081-0.06c0.012-0.017,0.03-0.03,0.051-0.039c0.307-0.231,0.82-0.593,1.138-0.82
		c1.093-0.711,2.663-1.6,2.663-1.6c-1.165-0.526-3.024-1.31-6.709-4.716l0.18-0.436c0,0,8.297-3.146,11.673-7.679
		c1.574,0.128,6.811,0.599,9.426,1.34c0.475-0.022,0.807,0.124,1.191,0.261c0.323,0.114,0.668,0.216,0.994,0.329
		c0.175-0.143,0.819-0.655,1.747-1.257c0.356-0.212,0.925-0.553,1.294-0.761c0.012-0.013,0.033-0.024,0.061-0.034
		c0.032-0.018,0.065-0.037,0.096-0.055c0.01-0.005,0.021-0.008,0.031-0.013c0.04-0.023,0.061-0.034,0.076-0.039
		c0.033-0.017,0.065-0.033,0.099-0.051c0.092,0.019,0.159,0.044,0.231,0.061c0.397,0.104,0.425,0.103,0.791,0.148
		c0.047-0.014,0.09-0.026,0.134-0.04c0.883-0.708,1.885-1.386,2.955-2.029c0.841-0.507,1.783-0.963,2.719-1.422
		c0.008,0.004,0.017,0.007,0.025,0.01c0.088-0.049,0.173-0.098,0.255-0.145c0.5-0.247,0.997-0.497,1.473-0.757
		c-0.539-0.209-1.021-0.385-1.451-0.535c0.892-0.537,2.297-1.272,2.891-1.58c0.255-0.115,0.451-0.212,0.664-0.31
		c0.031-0.014,0.063-0.026,0.092-0.038c-0.002,0-0.006-0.001-0.008-0.001c0.215-0.099,0.454-0.203,0.792-0.332
		c-0.506-0.151-0.493-0.15-1.142-0.329c-0.502-0.139-2.205-0.447-3.373-0.272c0,0,0.939-0.315,1.253-0.402
		c-1.532,0.086-3.114-0.185-6.007,0.799c0,0,0.191-0.305,0.483-0.542c-0.573,0.147-0.928,0.288-1.258,0.53
		c-0.231-0.209-0.585-0.885-0.251-1.219c0,0-0.469,0.106-0.766,0.454c-0.079,0.141-0.145,0.282-0.189,0.428
		c-0.016,0.054-0.148,0.094-0.232,0.081c-0.673-0.108-1.306-0.251-1.933-0.398c3.913-2.698,2.354-3.864,2.354-3.864
		c0.615-0.116,1.24,0.117,1.24,0.117c-0.594-2.028-3.157-2.776-3.157-2.776c0.478-0.239,1.094-0.356,1.094-0.356
		c-3.403-1.478-10.666-3.074-10.666-3.074c0.82-0.25,0.812-0.599,0.812-0.599c-0.888,0.293-1.65,0.079-1.65,0.079
		C130.546,198.759,129.848,198.359,129.848,198.359"/>
	<path style="fill:#CDE9EE;" d="M101.719,238.559c0,0-1.369-0.651-2.937-0.745c0,0,0.973-0.567,3.584,0.249
		C102.366,238.064,101.804,238.507,101.719,238.559"/>
	<path style="fill:#CDE9EE;" d="M92.067,239.635l-0.041-0.02C92.053,239.621,92.071,239.628,92.067,239.635"/>
	<path style="fill:#CDE9EE;" d="M97.885,240.932c-0.007,0.003-0.012,0.005-0.012,0.005s-0.006-0.007-0.017-0.018L97.885,240.932"/>
	<path style="fill:#CDE9EE;" d="M49.307,198.683c-3.115-0.815-4.798-2.206-4.798-2.206c-4.678,6.661,0.987,10.995,0.987,10.995
		c-1.862-0.137-4.923-1.21-4.923-1.21s2.416,4.374,5.83,6.273c3.413,1.898,16.121,5.455,16.121,5.455s-1.236,0.095-2.529,0.793
		c0,0,2.609-0.276,5.732,0.888c0,0-0.891,0.154-1.499,0.761c0,0,2.47-0.398,4.618,0.264c0,0-0.453,1.36-0.226,2.278
		c0,0-1.221,0.864-1.691,1.383c0,0,1.711-0.474,2.469-0.4c0,0,0.139,3.317,1.215,5.386c0,0,0.525-1.263,1.821-1.822
		c0,0,0.534,2.492,4.367,4.684c0,0,0.532-0.912,1.285-1.117c0,0,1.555,1.97,4.543,3.152l-0.592,1.307l1.986-0.44
		c0,0,2.864,1.971,4.812,2.905c0,0-0.015-0.7,0.32-1.13c0,0,2.551,0.187,4.957,0.042c2.408-0.145,5.895-1.206,7.254-2.089
		l0.148-0.121c0.402,0.228,0.793,0.461,1.139,0.716c0.048,0.037,0.006,0.109-0.096,0.132c-0.271,0.06-0.529,0.13-0.785,0.206
		c-0.599,0.234-0.677,0.486-0.677,0.486c0.559-0.248,1.979-0.264,2.451-0.212c-0.383,0.221-0.564,0.43-0.694,0.74
		c0.38-0.201,0.927-0.376,0.927-0.376c-1.141,1.638-0.182,2.315,0.065,3.063c0.084-0.172,0.448-0.703,0.448-0.703
		c-0.027,0.602,1.036,1.324,1.444,1.525c0.528,0.258,0.523,0.253,0.954,0.452c0.345-0.418,0.586-0.594,0.912-0.914
		c0.57-0.474,2.176-1.785,2.935-2.204l1.241,0.573c0,0,0.013-0.009,0.033-0.022c0.248-0.267,0.549-0.448,0.83-0.666
		c-0.368-0.142-0.719-0.293-1.061-0.45c-0.653-0.222-1.153-0.488-1.67-0.809c-0.018-0.011-0.035-0.023-0.052-0.034
		c-0.627-0.489-0.694-0.956-0.721-1.255c-0.007-0.099-0.046-0.197-0.101-0.287c-0.061-0.195-0.184-0.419-0.425-0.647
		c-0.499-0.471-2.329-1.031-4.559-1.289c1.462-0.06,2.764-0.126,3.28-0.195l-2.143-0.781c0,0,2.195-0.293,4.007-0.611
		c0.885-0.149,2.006-0.322,2.633-0.508c0.049-0.013-0.127-0.105,0.21-0.013l0,0c0.006-0.003-0.052-0.028-0.045-0.03
		c0.868-0.24,1.684-0.515,2.565-0.728c0.094-0.023,0.17-0.054,0.265-0.076c0.419-0.096,1.043-0.304,1.639-0.48l4.801,1.414
		c-4.328-1.952-6.191-5.304-6.191-5.304l-0.124,0.051c-1.058,0.428-9.018,3.475-19.915,2.966c-0.717-0.034,1.846-0.632,1.846-0.632
		c-4.966-0.393-11.2-2.161-11.2-2.161c0.892-0.155,1.437-0.438,1.437-0.438c-3.934-0.424-7.948-1.505-11.21-2.721
		c-17.827-6.37-15.503-11.998-15.503-11.998c-1.502,0.551-2.623,1.315-2.623,1.315c-1.831-1.969-1.957-6.287-1.957-6.287
		c-1.052,0.754-4.216,4.053-4.216,4.053c-6.049-5.971-4.949-9.312-4.949-9.312c2.054,1.042,5.4,1.387,5.4,1.387
		c-2.082-8.834,4.712-12.775,4.712-12.775c-0.528-0.678-0.676-1.278-0.676-1.278C47.605,193.118,49.307,198.683,49.307,198.683"/>
	<path style="fill:#CDE9EE;" d="M148.564,212.919c0,0-2.593-0.889-4.42-0.997c0,0,2.381-0.607,5.278,0.482
		C149.422,212.405,148.663,212.857,148.564,212.919"/>
	<path style="fill:#ABD8D7;" d="M84.944,238.053c-7.438-3.618-23.377-9.791-23.377-9.791c1.826,2.515,6.951,5.902,6.951,5.902
		l1.78,0.306l-1.144,0.379c3.221,2.495,10.082,4.178,12.057,4.624C82.666,239.192,83.843,238.651,84.944,238.053"/>
	<path style="fill:#ABD8D7;" d="M83.075,239.086c1.578,0.327,3.117,0.629,4.727,0.926c0.252-0.129,0.481-0.295,0.481-0.295
		c-0.598-0.429-1.801-0.911-3.167-1.579C84.473,238.486,83.805,238.814,83.075,239.086"/>
	<path style="fill:#CDE9EE;" d="M135.67,216.337c-0.039,0.041-0.104,0.06-0.165,0.06c-0.085,0.076-0.147,0.137-0.187,0.177h0.001
		c0.359-1.299-0.615-1.793-0.615-1.793c-0.5,0.764-1.328,1.465-1.751,1.798c0.37-3.175-4.417-5.51-4.417-5.51
		c0.336,1.482-0.139,3.23-0.65,4.528l-0.004-0.005c0,0-0.418,0.842-0.885,1.589c-0.046,0.023-0.075,0.053-0.057,0.09
		c-0.243,0.382-0.495,0.73-0.707,0.911c0,0,2.165,0.04,3.242,0.121l-0.01,0.059c0,0,3.706,0.271,6.639,0.96
		c0.471,0.133,0.879,0.254,1.188,0.345c0.39,0.126,0.672,0.205,0.672,0.205c1.217-1.013,3.455-2.252,3.455-2.252
		c0.23,0.096,0.931,0.225,1.058,0.249c0.588-0.478,1.235-0.94,1.916-1.389C141.924,215.568,137.729,214.112,135.67,216.337"/>
	<path style="fill:#83BAC0;" d="M85.517,238.333c-2.265,1.131-6.286,1.425-6.286,1.425c2.938-0.344,4.897-1.409,4.897-1.409
		c-1.516-0.802-6.928-1.374-6.928-1.374c2.378-0.184,4.492,0.018,6.066,0.285L85.517,238.333"/>
	<path style="fill:#ABD8D7;" d="M86.806,234.331c0,0,4.256,0.033,6.773-0.392c2.717-0.46,5.858-0.656,7.521-0.617
		c0,0-0.991-1.107-1.192-1.585C99.908,231.736,94.367,234.031,86.806,234.331"/>
	<path style="fill:#ABD8D7;" d="M129.128,215.753c-0.109-0.293-0.155-0.599-0.222-0.898c-0.111-0.492-0.143-1.019-0.373-1.483
		c-0.151,0.597-0.438,1.217-0.718,1.856c-0.649,1.915-1.705,3.024-1.705,3.024c1.153-0.04,3.988,0.159,3.988,0.159
		c-0.372-0.548-0.716-1.424-0.889-2.393C129.177,215.93,129.159,215.838,129.128,215.753"/>
	<path style="fill:#545352;" d="M51.668,211.186c-0.178,0.131-0.78,0.538-0.78,0.538c-5.2,3.789-13.749,4.81-13.749,4.81
		s3.094,1.529,8.559,1.079c5.466-0.451,10.914-3.462,10.914-3.462c0.87,0.16,2.104,0.975,2.104,0.975s-0.188-1.544-2.909-2.934
		C53.899,211.22,51.779,211.105,51.668,211.186"/>
	<path style="fill:#6E7979;" d="M51.668,211.186c-0.174,0.124-0.78,0.538-0.78,0.538c-5.2,3.789-13.749,4.81-13.749,4.81
		s10.122,1.158,18.067-4.618C55.206,211.916,54.042,211.242,51.668,211.186"/>
	<path style="fill:#545352;" d="M79.621,193.015c0.207-0.121,0.841-0.516,0.841-0.516c5.998-3.491,5.68-7.819,5.68-7.819
		s3.828,1.051,4.429,3.763c0.601,2.712-3.81,6.11-3.81,6.11c0.549,0.37,2.476,0.734,2.476,0.734s-3.071,0.33-6.524-0.585
		C80.294,194.062,79.493,193.089,79.621,193.015"/>
	<path style="fill:#6E7979;" d="M79.621,193.015c0.197-0.117,0.841-0.516,0.841-0.516c5.998-3.491,5.68-7.819,5.68-7.819
		s5.006,4.484-4.134,9.814C82.008,194.493,80.374,194.124,79.621,193.015"/>
	<path style="fill:#CDE9EE;" d="M64.967,229.343c0,0,9.233,6.978,20.82,7.764L64.967,229.343"/>
	<path style="fill:#CDE9EE;" d="M137.824,205.309c-0.439,1.868-2.408,3.249-2.408,3.249c-2.116-0.695-4.374-3.752-4.374-3.752
		c-0.196,0.432-0.231,0.822-0.163,1.181l-1.498-0.544l0.242-1.507l-2.297,0.429l-4.962-3.483l-0.487,1.382
		c0,0-9.808-3.171-13.495-4.893c0,0-3.912,0.52-5.661,0.841c0,0,3.053,0.955,7.849,2.534c4.551,0.809,13.521,2.775,18.549,6.365
		c1.377,0.494,2.771,1,4.172,1.513c0,0,3.8,0.564,6.153,1.163c0,0,0.35-0.147,0.688-0.437l-3.219-1.169
		C138.364,206.574,137.824,205.309,137.824,205.309"/>
	<path style="fill:#CDE9EE;" d="M90.376,206.876c1.577,0.588,3.843,0.422,5.061-0.37c1.219-0.793,0.93-1.911-0.647-2.499
		c-1.576-0.588-3.842-0.423-5.062,0.37C88.509,205.169,88.799,206.288,90.376,206.876"/>
	<path style="fill:#FFFFFF;" d="M89.681,206.547c1.552,0.579,3.784,0.416,4.984-0.364c1.2-0.781,0.914-1.882-0.637-2.461
		c-1.551-0.58-3.784-0.416-4.984,0.365C87.844,204.867,88.129,205.968,89.681,206.547"/>
	<path style="fill:#474746;" d="M89.828,204.97c0.051,0.037,0.112,0.071,0.188,0.099c0.395,0.148,0.968,0.104,1.279-0.098
		c0.278-0.181,0.253-0.424-0.033-0.579c0.414-0.026,0.844,0.022,1.199,0.154c0.733,0.273,0.858,0.798,0.283,1.173
		c-0.577,0.375-1.638,0.457-2.372,0.184C89.788,205.685,89.59,205.305,89.828,204.97"/>
	<path style="fill:#CDE9EE;" d="M79.782,213.763c1.576,0.587,3.843,0.421,5.061-0.37c1.22-0.793,0.93-1.912-0.648-2.499
		c-1.576-0.589-3.842-0.423-5.061,0.37C77.917,212.055,78.205,213.175,79.782,213.763"/>
	<path style="fill:#FFFFFF;" d="M79.089,213.434c1.552,0.579,3.783,0.415,4.983-0.364c1.199-0.781,0.914-1.882-0.638-2.46
		c-1.551-0.58-3.784-0.416-4.982,0.364C77.251,211.753,77.536,212.855,79.089,213.434"/>
	<path style="fill:#474746;" d="M79.642,211.591c0.051,0.037,0.112,0.072,0.189,0.1c0.395,0.148,0.969,0.103,1.28-0.099
		c0.276-0.18,0.253-0.423-0.033-0.578c0.414-0.028,0.844,0.021,1.199,0.154c0.732,0.273,0.859,0.799,0.282,1.173
		c-0.576,0.375-1.637,0.457-2.369,0.183C79.602,212.305,79.404,211.926,79.642,211.591"/>
	<path style="fill:#545352;" d="M100.567,202.542c0.288,0.249-0.069,0.596-1.145,1.566l-0.073,0.066
		c-1.054,0.95-3.435,2.462-4.913,3.226c-0.062,0.033-0.126,0.065-0.185,0.094c-1.397,0.699-1.69,0.728-2.704,0.742
		c-1.048,0.014-3.21-0.543-3.633-0.655l-0.023-0.006c-0.446-0.119-0.67-0.178-0.397-0.59c0.367-0.555,2.933-2.666,4.105-3.486
		c0.927-0.647,3.122-1.933,4.203-2.492c0.169-0.087,0.299-0.151,0.384-0.188c0.138-0.059,0.734-0.245,1.147-0.07
		C97.878,200.98,100.178,202.205,100.567,202.542L100.567,202.542z M84.351,209.877l0.018,0.008
		c0.333,0.171,2.007,1.043,2.265,1.544c0.248,0.484,0.27,0.632-0.715,1.483c-0.042,0.036-0.088,0.074-0.136,0.114
		c-1.091,0.907-3.405,2.445-4.976,3.203l-0.11,0.052c-1.604,0.773-2.187,1.037-2.751,0.967c-0.764-0.093-3.783-0.851-4.38-1.047
		c-0.453-0.148-0.253-0.48-0.173-0.563c0.048-0.05,0.138-0.129,0.263-0.233c0.801-0.664,2.72-2.053,3.734-2.667
		c1.285-0.778,4.717-2.566,5.702-2.89C83.823,209.608,83.998,209.698,84.351,209.877L84.351,209.877z M96.62,199.311
		c-1.132,0.584-3.016,1.638-4.969,3.019c-2.543,1.798-4.46,3.434-5.606,4.411c-0.343,0.291-0.611,0.521-0.824,0.693l-0.231,0.19
		c-0.261,0.211-0.43,0.349-0.59,0.461c-0.177,0.107-0.401,0.225-0.745,0.406l-0.305,0.16c-0.278,0.147-0.654,0.337-1.131,0.579
		c-1.602,0.808-4.282,2.16-7.105,3.852c-2.169,1.3-3.72,2.478-4.558,3.174c0,0-0.913,0.734-1.423,1.462l1.337,0.324
		c0,0,0.718-0.703,1.519-1.353c1.817,0.502,4.267,1.072,4.267,1.072l0.07,0.021c0.132,0.023,0.26,0.046,0.398,0.071
		c1.022,0.186,1.7,0.245,2.756-0.141c1.038-0.38,3.078-1.432,4.961-2.559c0.699-0.419,1.412-0.926,2.063-1.464
		c0.962-0.798,1.675-1.58,1.771-1.945c0.138-0.53-0.638-1.132-1.153-1.529l-0.151-0.117c-0.172-0.139-0.366-0.274-0.554-0.405
		c-0.272-0.189-0.551-0.385-0.603-0.482c-0.008-0.017-0.022-0.087,0.19-0.263c0.065-0.054,0.146-0.113,0.24-0.175
		c0.096-0.062,0.188-0.115,0.277-0.161c0.286-0.148,0.426-0.161,0.462-0.162c0.204-0.002,0.661,0.079,1.104,0.156
		c0.309,0.053,0.626,0.109,0.942,0.154l0.271,0.04c0.917,0.136,2.304,0.341,3.302,0.132c0.688-0.144,2.021-0.693,3.322-1.366
		c0.877-0.454,1.674-0.928,2.303-1.375c1.693-1.197,3.199-2.449,3.659-3.043c0.47-0.605,0.17-0.911-0.471-1.345
		c-0.086-0.059-0.166-0.113-0.248-0.169l-0.06-0.027c0,0-1.78-1.006-3.25-1.732c1.051-0.556,2.232-1.087,2.232-1.087l-0.994-0.545
		C97.806,198.679,96.62,199.311,96.62,199.311L96.62,199.311z"/>
	<path style="fill:#A0D1DE;" d="M76.29,209.505c0,0-3.652,1.149-2.836,2.891c0,0-2.354-0.729-0.618-2.11
		C74.571,208.905,76.29,209.505,76.29,209.505"/>
	<path style="fill:#A0D1DE;" d="M72.123,208.894c0,0-3.373,1.07-2.301,2.531c0,0-2.182-0.467-1.003-1.689
		C69.998,208.514,72.123,208.894,72.123,208.894"/>
	<path style="fill:#A0D1DE;" d="M86.436,204.294c0,0,0.977-1.586,3.793-1.652c0,0-1.602-0.712-3.333,0.217
		C85.164,203.788,86.436,204.294,86.436,204.294"/>
	<path style="fill:#A0D1DE;" d="M84.719,202.266c0,0,1.61-1.372,3.742-0.914c0,0-0.661-0.902-2.467-0.431
		C84.187,201.39,84.719,202.266,84.719,202.266"/>
	<path style="fill:#B2DCE5;" d="M93.618,216.142c0,0,0.422-1.221,1.089-1.785c0,0,1.919,0.538,3.569,0.345
		c0,0,0.134-1.694,1.709-2.831c0,0,1.391,0.074,2.454-0.253l0.007,0.007c0.417-0.105,0.894-0.247,1.266-0.418
		c0,0,0.369-0.853-0.443-1.442c0,0,2.4,0.799,2.241,2.19c0,0-1.62,0.502-3.261,0.686c-0.468,0.066-0.981,0.122-1.319,0.118
		c0,0-0.694,2.299,0.247,2.743c0,0-3.604,0.502-5.604,0.386c0,0-0.816,0.927-0.901,1.238c0,0-2.587,0.026-4.244-0.39
		C90.428,216.735,92.73,216.402,93.618,216.142"/>
	<path style="fill:#545352;" d="M93.628,211.495c-0.121,0.057,2.723-1.578,5.217-3.296c0,0-0.366-0.278-0.446-0.511
		c0,0,0.807,0.345,1.214,0.259c0,0-0.773,1.036-2.085,1.884c0,0,1.181-1.016,1.407-1.42
		C98.936,208.411,96.486,210.155,93.628,211.495"/>
	<g>
		<path style="opacity:0.5;fill:#0078AE;" d="M195.697,147.842c0,2.419-1.598,4.838-4.795,6.684l-68.65,41.541
			c-6.394,3.691-16.76,3.691-23.154,0l-69.457-40.102c-3.196-1.846-4.795-4.264-4.795-6.683c0-2.419,1.599-4.838,4.795-6.684
			l68.651-41.541c6.393-3.691,16.759-3.691,23.152,0l69.458,40.101C194.099,143.003,195.697,145.423,195.697,147.842z"/>
		<linearGradient id="SVGID_19_" gradientUnits="userSpaceOnUse" x1="24.8459" y1="138.0231" x2="195.6969" y2="138.0231">
			<stop  offset="0" style="stop-color:#49AFC2"/>
			<stop  offset="1" style="stop-color:#0078AE"/>
		</linearGradient>
		<path style="fill:url(#SVGID_19_);" d="M195.697,137.303c0,2.418-1.598,4.838-4.795,6.684l-68.65,41.542
			c-6.394,3.69-16.76,3.69-23.154,0l-69.457-40.102c-3.196-1.846-4.795-4.265-4.795-6.684c0-2.419,1.599-4.838,4.795-6.683
			l68.651-41.541c6.393-3.691,16.759-3.691,23.152,0l69.458,40.101C194.099,132.465,195.697,134.885,195.697,137.303z"/>
		<g>
			<path style="fill:#0078AE;" d="M64.203,140.112l24.859-15.822c14.07-8.955,26.521-5.529,30.236-3.414
				c7.516,4.28,4.908,8.257,3.511,10.188c4.346-1.666,12.676-3.643,22.233,1.8c2.732,1.556,13.138,7.924-5.181,19.583l-25.502,16.23
				L64.203,140.112z M97.566,142.52l7.567-4.817c5.601-3.564,2.713-5.889,1.057-6.831c-1.533-0.872-5.907-2.137-10.956,1.076
				l-7.665,4.878L97.566,142.52z M119.358,154.93l8.675-5.522c7.215-4.591,2.859-7.578,1.18-8.535
				c-1.558-0.887-7.001-3.235-14.045,1.247l-8.643,5.502L119.358,154.93z"/>
		</g>
		<g>
			<path style="fill:#FFFFFF;" d="M64.203,133.713l24.859-15.82c14.07-8.955,26.521-5.53,30.236-3.414
				c7.516,4.28,4.908,8.257,3.511,10.187c4.346-1.667,12.676-3.643,22.233,1.8c2.732,1.557,13.138,7.924-5.181,19.583l-25.502,16.23
				L64.203,133.713z M97.566,136.121l7.567-4.816c5.601-3.563,2.713-5.888,1.057-6.831c-1.533-0.873-5.907-2.137-10.956,1.076
				l-7.665,4.878L97.566,136.121z M119.358,148.533l8.675-5.523c7.215-4.591,2.859-7.578,1.18-8.535
				c-1.558-0.887-7.001-3.236-14.045,1.247l-8.643,5.502L119.358,148.533z"/>
		</g>
	</g>
</g>
<g id="THE_FEATURES_2">
</g>
</svg>
