<?xml version="1.0" encoding="iso-8859-1"?>
<!-- Generator: Adobe Illustrator 21.1.0, SVG Export Plug-In . SVG Version: 6.00 Build 0)  -->
<svg version="1.1" xmlns="http://www.w3.org/2000/svg" xmlns:xlink="http://www.w3.org/1999/xlink" x="0px" y="0px"
	 viewBox="0 0 712.67 270" style="enable-background:new 0 0 712.67 270;" xml:space="preserve">
<g id="Layer_1">
</g>
<g id="The_Features">
	<g>
		<linearGradient id="SVGID_1_" gradientUnits="userSpaceOnUse" x1="401.2458" y1="259.8405" x2="170.1525" y2="0.071">
			<stop  offset="0" style="stop-color:#49AFC2"/>
			<stop  offset="1" style="stop-color:#0078AE"/>
		</linearGradient>
		<polygon style="fill:url(#SVGID_1_);" points="26.724,269.902 444.554,24.055 712.67,178.852 554.952,270 520.139,269.794 		"/>
		<linearGradient id="SVGID_2_" gradientUnits="userSpaceOnUse" x1="358.8167" y1="297.5862" x2="127.7227" y2="37.8162">
			<stop  offset="0" style="stop-color:#49AFC2"/>
			<stop  offset="1" style="stop-color:#0078AE"/>
		</linearGradient>
		<polyline style="fill:url(#SVGID_2_);" points="454.987,30.032 434.242,18.145 0,269.902 38.819,270 		"/>
		<polygon style="fill:#0078AE;" points="407.212,269.847 289.111,201.662 232.328,232.436 297.126,269.847 		"/>
		<polygon style="fill:#0078AE;" points="425.683,263.368 568.3,180.367 444.554,108.922 301.84,191.98 		"/>
		<g>
			<g>
				<line style="fill:none;stroke:#FFFFFF;stroke-miterlimit:10;" x1="425.946" y1="238.015" x2="425.946" y2="238.515"/>
				
					<line style="fill:none;stroke:#FFFFFF;stroke-miterlimit:10;stroke-dasharray:0.994,0.994;" x1="425.946" y1="239.509" x2="425.946" y2="260.88"/>
				<line style="fill:none;stroke:#FFFFFF;stroke-miterlimit:10;" x1="425.946" y1="261.377" x2="425.946" y2="261.877"/>
			</g>
		</g>
		<g>
			<g>
				<line style="fill:none;stroke:#FFFFFF;stroke-miterlimit:10;" x1="496.117" y1="41.404" x2="496.117" y2="41.904"/>
				
					<line style="fill:none;stroke:#FFFFFF;stroke-miterlimit:10;stroke-dasharray:0.925,0.925;" x1="496.117" y1="42.828" x2="496.117" y2="53.466"/>
				<line style="fill:none;stroke:#FFFFFF;stroke-miterlimit:10;" x1="496.117" y1="53.928" x2="496.117" y2="54.428"/>
			</g>
		</g>
		<polygon style="fill:#0089B5;" points="496.273,53.87 186.008,234.454 144.759,210.639 454.987,30.032 		"/>
		<g>
			<g>
				<line style="fill:none;stroke:#FFFFFF;stroke-miterlimit:10;" x1="186.008" y1="219.547" x2="186.008" y2="220.047"/>
				
					<line style="fill:none;stroke:#FFFFFF;stroke-miterlimit:10;stroke-dasharray:1.0645,1.0645;" x1="186.008" y1="221.111" x2="186.008" y2="233.352"/>
				<line style="fill:none;stroke:#FFFFFF;stroke-miterlimit:10;" x1="186.008" y1="233.885" x2="186.008" y2="234.385"/>
			</g>
		</g>
		<g>
			<g>
				<line style="fill:none;stroke:#FFFFFF;stroke-miterlimit:10;" x1="144.759" y1="195.721" x2="144.759" y2="196.221"/>
				
					<line style="fill:none;stroke:#FFFFFF;stroke-miterlimit:10;stroke-dasharray:1.0644,1.0644;" x1="144.759" y1="197.285" x2="144.759" y2="209.526"/>
				<line style="fill:none;stroke:#FFFFFF;stroke-miterlimit:10;" x1="144.759" y1="210.058" x2="144.759" y2="210.558"/>
			</g>
		</g>
		<polygon style="fill:#49AFC2;" points="496.114,39.196 186.008,219.746 144.759,195.931 454.827,15.346 		"/>
		<polygon style="fill:#0078AE;" points="630.173,143.129 578.611,172.898 454.866,101.453 506.428,71.685 		"/>
		<linearGradient id="SVGID_3_" gradientUnits="userSpaceOnUse" x1="485.8023" y1="226.4816" x2="630.1724" y2="226.4816">
			<stop  offset="0" style="stop-color:#70CACC"/>
			<stop  offset="0.3897" style="stop-color:#29A2BE"/>
			<stop  offset="1" style="stop-color:#0078AE"/>
		</linearGradient>
		<polygon style="fill:url(#SVGID_3_);" points="630.172,214.574 537.363,268.158 485.802,238.39 578.611,184.805 		"/>
		<linearGradient id="SVGID_4_" gradientUnits="userSpaceOnUse" x1="588.9234" y1="178.8514" x2="692.0449" y2="178.8514">
			<stop  offset="0" style="stop-color:#70CACC"/>
			<stop  offset="0.3897" style="stop-color:#29A2BE"/>
			<stop  offset="1" style="stop-color:#0078AE"/>
		</linearGradient>
		<polygon style="fill:url(#SVGID_4_);" points="692.045,178.852 640.485,208.62 588.923,178.852 640.485,149.083 		"/>
		<path style="fill:#0078AE;" d="M571.402,248.504l-9.595-6.367c2.262-0.51,5.407-1.4,8.552-2.964
			c4.877-2.426,7.203-5.203,8.253-6.737c-3.137,0.677-9.4,1.749-17.287,1.19c-6.597-0.466-11.507-1.875-14.262-2.821
			c1.738-0.471,3.75-1.129,5.801-2.064c4.682-2.13,7.235-4.629,8.561-6.229c-2.949,1.27-8.867,3.462-17.307,4.324
			c-7.464,0.763-13.606,0.148-17.066-0.354c0.374,2.433,0.445,5.698-0.716,9.462c-1.38,4.477-3.994,7.999-6.16,10.383
			c2.343-0.697,5.665-1.888,8.885-3.842c2.66-1.615,4.384-3.224,5.476-4.45c1.435,1.999,3.022,4.807,3.701,8.258
			c0.818,4.153,0.004,7.623-0.874,9.957c2.815-0.697,7.578-2.145,11.773-4.99c2.525-1.713,4.076-3.413,5.031-4.712
			c3.677,1.846,7.353,3.694,11.029,5.539"/>
		<path style="fill:#0078AE;" d="M609.482,226.521l-7.354-4.88c1.733-0.391,4.143-1.074,6.556-2.273
			c3.736-1.859,5.519-3.987,6.323-5.163c-2.404,0.518-7.203,1.34-13.249,0.912c-5.056-0.358-8.819-1.437-10.93-2.163
			c1.331-0.36,2.873-0.866,4.446-1.581c3.586-1.634,5.544-3.548,6.56-4.774c-2.259,0.973-6.796,2.654-13.265,3.315
			c-5.72,0.584-10.428,0.113-13.081-0.273c0.288,1.865,0.342,4.367-0.548,7.253c-1.059,3.432-3.061,6.131-4.722,7.958
			c1.797-0.535,4.342-1.447,6.81-2.945c2.039-1.238,3.36-2.471,4.198-3.409c1.1,1.532,2.315,3.684,2.837,6.328
			c0.626,3.182,0.002,5.843-0.67,7.632c2.157-0.535,5.809-1.643,9.023-3.823c1.936-1.314,3.124-2.616,3.855-3.613
			c2.817,1.415,5.636,2.83,8.453,4.246"/>
		<polygon style="fill:#0078AE;" points="645.547,164.022 614.705,181.828 609.548,178.852 640.391,161.045 		"/>
		<linearGradient id="SVGID_5_" gradientUnits="userSpaceOnUse" x1="318.4774" y1="142.6557" x2="863.6877" y2="226.8549">
			<stop  offset="0" style="stop-color:#70CACC"/>
			<stop  offset="0.3897" style="stop-color:#29A2BE"/>
			<stop  offset="1" style="stop-color:#0078AE"/>
		</linearGradient>
		<polygon style="fill:url(#SVGID_5_);" points="570.304,155.096 425.943,238.037 302.197,166.593 446.558,83.65 		"/>
		<polygon style="fill:#0078AE;" points="547.675,155.083 425.943,226.13 374.381,196.362 496.114,125.314 		"/>
		<polygon style="fill:#0078AE;" points="424.967,155.107 364.07,190.408 322.822,166.593 383.718,131.292 		"/>
		<polygon style="fill:#0078AE;" points="654.141,168.983 623.297,186.79 618.141,183.814 648.985,166.006 		"/>
		<polygon style="fill:#0078AE;" points="662.734,173.944 631.891,191.751 626.735,188.774 657.579,170.967 		"/>
		<polygon style="fill:#0078AE;" points="671.328,178.906 640.485,196.713 635.329,193.736 666.171,175.929 		"/>
		<g>
			<g>
				<line style="fill:none;stroke:#FFFFFF;stroke-miterlimit:10;" x1="425.946" y1="201.231" x2="425.946" y2="201.731"/>
				
					<line style="fill:none;stroke:#FFFFFF;stroke-miterlimit:10;stroke-dasharray:0.994,0.994;" x1="425.946" y1="202.725" x2="425.946" y2="224.095"/>
				<line style="fill:none;stroke:#FFFFFF;stroke-miterlimit:10;" x1="425.946" y1="224.592" x2="425.946" y2="225.092"/>
			</g>
		</g>
		<g>
			<g>
				<line style="fill:none;stroke:#FFFFFF;stroke-miterlimit:10;" x1="374.385" y1="172.547" x2="374.385" y2="173.047"/>
				
					<line style="fill:none;stroke:#FFFFFF;stroke-miterlimit:10;stroke-dasharray:0.9939,0.9939;" x1="374.385" y1="174.041" x2="374.385" y2="195.411"/>
				<line style="fill:none;stroke:#FFFFFF;stroke-miterlimit:10;" x1="374.385" y1="195.908" x2="374.385" y2="196.408"/>
			</g>
		</g>
		<g>
			<g>
				<line style="fill:none;stroke:#FFFFFF;stroke-miterlimit:10;" x1="302.197" y1="166.523" x2="302.197" y2="167.023"/>
				
					<line style="fill:none;stroke:#FFFFFF;stroke-miterlimit:10;stroke-dasharray:0.994,0.994;" x1="302.197" y1="168.017" x2="302.197" y2="189.388"/>
				<line style="fill:none;stroke:#FFFFFF;stroke-miterlimit:10;" x1="302.197" y1="189.885" x2="302.197" y2="190.385"/>
			</g>
		</g>
		<g>
			<g>
				<line style="fill:none;stroke:#FFFFFF;stroke-miterlimit:10;" x1="364.069" y1="156.127" x2="364.069" y2="156.627"/>
				
					<line style="fill:none;stroke:#FFFFFF;stroke-miterlimit:10;stroke-dasharray:0.9928,0.9928;" x1="364.069" y1="157.62" x2="364.069" y2="190.878"/>
				<line style="fill:none;stroke:#FFFFFF;stroke-miterlimit:10;" x1="364.069" y1="191.374" x2="364.069" y2="191.874"/>
			</g>
		</g>
		<g>
			<g>
				<line style="fill:none;stroke:#FFFFFF;stroke-miterlimit:10;" x1="568.299" y1="154.075" x2="568.299" y2="154.575"/>
				
					<line style="fill:none;stroke:#FFFFFF;stroke-miterlimit:10;stroke-dasharray:0.994,0.994;" x1="568.299" y1="155.569" x2="568.299" y2="176.94"/>
				<line style="fill:none;stroke:#FFFFFF;stroke-miterlimit:10;" x1="568.299" y1="177.437" x2="568.299" y2="177.937"/>
			</g>
		</g>
		<g>
			<g>
				<line style="fill:none;stroke:#FFFFFF;stroke-miterlimit:10;" x1="547.674" y1="131.268" x2="547.674" y2="131.768"/>
				
					<line style="fill:none;stroke:#FFFFFF;stroke-miterlimit:10;stroke-dasharray:0.994,0.994;" x1="547.674" y1="132.762" x2="547.674" y2="154.133"/>
				<line style="fill:none;stroke:#FFFFFF;stroke-miterlimit:10;" x1="547.674" y1="154.63" x2="547.674" y2="155.13"/>
			</g>
		</g>
		<g>
			<g>
				<line style="fill:none;stroke:#FFFFFF;stroke-miterlimit:10;" x1="322.824" y1="130.871" x2="322.824" y2="131.371"/>
				
					<line style="fill:none;stroke:#FFFFFF;stroke-miterlimit:10;stroke-dasharray:0.9928,0.9928;" x1="322.824" y1="132.364" x2="322.824" y2="165.621"/>
				<line style="fill:none;stroke:#FFFFFF;stroke-miterlimit:10;" x1="322.824" y1="166.117" x2="322.824" y2="166.617"/>
			</g>
		</g>
		<g>
			<g>
				<line style="fill:none;stroke:#FFFFFF;stroke-miterlimit:10;" x1="424.967" y1="118.945" x2="424.967" y2="119.445"/>
				
					<line style="fill:none;stroke:#FFFFFF;stroke-miterlimit:10;stroke-dasharray:0.9928,0.9928;" x1="424.967" y1="120.437" x2="424.967" y2="153.695"/>
				<line style="fill:none;stroke:#FFFFFF;stroke-miterlimit:10;" x1="424.967" y1="154.191" x2="424.967" y2="154.691"/>
			</g>
		</g>
		<linearGradient id="SVGID_6_" gradientUnits="userSpaceOnUse" x1="374.3814" y1="151.9081" x2="547.6753" y2="151.9081">
			<stop  offset="0" style="stop-color:#70CACC"/>
			<stop  offset="0.3897" style="stop-color:#29A2BE"/>
			<stop  offset="1" style="stop-color:#0078AE"/>
		</linearGradient>
		<polygon style="fill:url(#SVGID_6_);" points="547.675,131.268 425.943,202.316 374.381,172.548 496.114,101.5 		"/>
		<polygon style="fill:#70CACC;" points="447.198,148.122 400.163,175.525 395.007,172.548 442.043,145.145 		"/>
		<polygon style="fill:#70CACC;" points="460.09,155.565 413.052,182.967 407.896,179.99 454.933,152.587 		"/>
		<polygon style="fill:#70CACC;" points="472.979,163.006 425.943,190.409 420.788,187.433 467.824,160.029 		"/>
		<linearGradient id="SVGID_7_" gradientUnits="userSpaceOnUse" x1="322.8218" y1="124.9129" x2="424.9068" y2="124.9129">
			<stop  offset="0" style="stop-color:#70CACC"/>
			<stop  offset="0.3897" style="stop-color:#29A2BE"/>
			<stop  offset="1" style="stop-color:#0078AE"/>
		</linearGradient>
		<polygon style="fill:url(#SVGID_7_);" points="424.907,118.955 364.07,154.686 322.822,130.871 383.658,95.14 		"/>
	</g>
</g>
<g id="THE_FEATURES_2">
</g>
</svg>
