<?xml version="1.0" encoding="UTF-8" standalone="no"?><!DOCTYPE svg PUBLIC "-//W3C//DTD SVG 1.1//EN" "http://www.w3.org/Graphics/SVG/1.1/DTD/svg11.dtd"><svg width="100%" height="100%" viewBox="0 0 368 287" version="1.1" xmlns="http://www.w3.org/2000/svg" xmlns:xlink="http://www.w3.org/1999/xlink" xml:space="preserve" xmlns:serif="http://www.serif.com/" style="fill-rule:evenodd;clip-rule:evenodd;stroke-miterlimit:10;"><path d="M143.275,158.612l110.932,64.046l0,-118.315l-110.932,-64.046l0,118.315Z" style="fill:#0089b5;fill-rule:nonzero;"/><path d="M32.667,104.198l110.681,-63.901l-10.121,-40.297l-110.681,63.901l10.121,40.297Z" style="fill:#009bbc;fill-rule:nonzero;"/><path d="M254.152,104.72l-110.841,-63.716l12.824,-39.639l110.841,63.715l-12.824,39.64Z" style="fill:#0089b5;fill-rule:nonzero;"/><path d="M32.344,222.657l110.932,-64.047l0,-118.311l-110.932,64.045l0,118.313Z" style="fill:#009bbc;fill-rule:nonzero;"/><path d="M143.387,285.09l-111.344,-62.259l111.233,-64.219l109.891,63.096l-109.78,63.382Z" style="fill:#0078ae;fill-rule:nonzero;"/><path d="M143.276,168.123l0,118.312l110.931,-64.046l0,-118.312l-110.931,64.046Z" style="fill:url(#_Linear1);fill-rule:nonzero;"/><path d="M32.344,222.628l110.932,64.047l0,-118.316l-110.932,-64.045l0,118.314Z" style="fill:#70cacb;fill-rule:nonzero;"/><path d="M143.275,168.327l-110.987,-64.091l-15.954,-33.926l110.987,64.091l15.954,33.926Z" style="fill:#49afc2;fill-rule:nonzero;"/><path d="M163.413,132.739l-20.137,35.588l110.681,-63.902l20.136,-35.588l-110.68,63.902Z" style="fill:url(#_Linear2);fill-rule:nonzero;"/><path d="M159.538,39.654l41.248,23.815l60.837,-35.731l-41.249,-23.814l-60.836,35.73Z" style="fill:url(#_Linear3);fill-rule:nonzero;"/><path d="M97.018,104.124l41.248,23.815l60.837,-35.731l-41.25,-23.815l-60.835,35.731Z" style="fill:url(#_Linear4);fill-rule:nonzero;"/><path d="M216.577,153.801l51.562,29.769l70.442,-41.874l-51.562,-29.769l-70.442,41.874Z" style="fill:url(#_Linear5);fill-rule:nonzero;"/><path d="M289.394,129.375l-47.036,27.403l-5.155,-2.977l47.036,-27.403l5.155,2.977Z" style="fill:#70cacb;fill-rule:nonzero;"/><path d="M302.286,136.818l-47.038,27.402l-5.156,-2.977l47.037,-27.402l5.157,2.977Z" style="fill:#70cacb;fill-rule:nonzero;"/><path d="M315.175,144.26l-47.036,27.403l-5.155,-2.976l47.036,-27.404l5.155,2.977Z" style="fill:#70cacb;fill-rule:nonzero;"/><path d="M264.176,102.226l51.561,29.769l51.56,-29.769l-51.56,-29.768l-51.561,29.768Z" style="fill:url(#_Linear6);fill-rule:nonzero;"/><path d="M329.393,92.358l-30.844,17.808l-5.156,-2.977l30.844,-17.808l5.156,2.977Z" style="fill:#fff;fill-rule:nonzero;"/><path d="M337.986,97.319l-30.843,17.808l-5.157,-2.977l30.844,-17.808l5.156,2.977Z" style="fill:#fff;fill-rule:nonzero;"/><path d="M346.579,102.281l-30.843,17.806l-5.156,-2.976l30.843,-17.807l5.156,2.977Z" style="fill:#fff;fill-rule:nonzero;"/><path d="M103.79,99.063l-56.437,32.584l-42.328,-24.438l56.438,-32.584l42.327,24.438Z" style="fill:#0078ae;fill-rule:nonzero;"/><path d="M103.79,93.314l-56.437,32.584l-42.328,-24.438l56.438,-32.584l42.327,24.438Z" style="fill:none;stroke:#fff;stroke-width:1px;stroke-dasharray:1,1;"/><path d="M195.309,48.034l-65.305,37.704l-48.979,-28.277l65.306,-37.705l48.978,28.278Z" style="fill:none;stroke:#fff;stroke-width:1px;stroke-dasharray:1,1;"/><path d="M307.309,178.034l-65.305,37.704l-48.979,-28.277l65.306,-37.705l48.978,28.278Z" style="fill:none;stroke:#fff;stroke-width:1px;stroke-dasharray:1,1;"/><defs><linearGradient id="_Linear1" x1="0" y1="0" x2="1" y2="0" gradientUnits="userSpaceOnUse" gradientTransform="matrix(110.932,0,0,110.932,143.275,195.256)"><stop offset="0" style="stop-color:#49afc2;stop-opacity:1"/><stop offset="1" style="stop-color:#0078ae;stop-opacity:1"/></linearGradient><linearGradient id="_Linear2" x1="0" y1="0" x2="1" y2="0" gradientUnits="userSpaceOnUse" gradientTransform="matrix(130.817,0,-7.10543e-15,130.817,143.275,118.582)"><stop offset="0" style="stop-color:#49afc2;stop-opacity:1"/><stop offset="1" style="stop-color:#0078ae;stop-opacity:1"/></linearGradient><linearGradient id="_Linear3" x1="0" y1="0" x2="1" y2="0" gradientUnits="userSpaceOnUse" gradientTransform="matrix(102.085,0,0,102.085,159.537,33.696)"><stop offset="0" style="stop-color:#70cacc;stop-opacity:1"/><stop offset="0.39" style="stop-color:#29a2be;stop-opacity:1"/><stop offset="1" style="stop-color:#0078ae;stop-opacity:1"/></linearGradient><linearGradient id="_Linear4" x1="0" y1="0" x2="1" y2="0" gradientUnits="userSpaceOnUse" gradientTransform="matrix(102.085,-7.10543e-15,7.10543e-15,102.085,97.0174,98.1665)"><stop offset="0" style="stop-color:#70cacc;stop-opacity:1"/><stop offset="0.39" style="stop-color:#29a2be;stop-opacity:1"/><stop offset="1" style="stop-color:#0078ae;stop-opacity:1"/></linearGradient><linearGradient id="_Linear5" x1="0" y1="0" x2="1" y2="0" gradientUnits="userSpaceOnUse" gradientTransform="matrix(122.003,-7.10543e-15,0,122.003,216.577,147.749)"><stop offset="0" style="stop-color:#70cacc;stop-opacity:1"/><stop offset="0.39" style="stop-color:#29a2be;stop-opacity:1"/><stop offset="1" style="stop-color:#0078ae;stop-opacity:1"/></linearGradient><linearGradient id="_Linear6" x1="0" y1="0" x2="1" y2="0" gradientUnits="userSpaceOnUse" gradientTransform="matrix(103.122,7.10543e-15,0,103.122,264.175,102.226)"><stop offset="0" style="stop-color:#70cacc;stop-opacity:1"/><stop offset="0.39" style="stop-color:#29a2be;stop-opacity:1"/><stop offset="1" style="stop-color:#0078ae;stop-opacity:1"/></linearGradient></defs></svg>