<?xml version="1.0" encoding="iso-8859-1"?>
<!-- Generator: Adobe Illustrator 21.1.0, SVG Export Plug-In . SVG Version: 6.00 Build 0)  -->
<svg version="1.1" xmlns="http://www.w3.org/2000/svg" xmlns:xlink="http://www.w3.org/1999/xlink" x="0px" y="0px"
	 viewBox="0 0 480 270" style="enable-background:new 0 0 480 270;" xml:space="preserve">
<g id="Layer_1">
</g>
<g id="The_Features">
	<linearGradient id="SVGID_1_" gradientUnits="userSpaceOnUse" x1="296.0316" y1="209.8181" x2="202.4149" y2="196.5495">
		<stop  offset="0" style="stop-color:#49AFC2"/>
		<stop  offset="1" style="stop-color:#0078AE"/>
	</linearGradient>
	<polygon style="fill:url(#SVGID_1_);" points="220.934,270 318.912,213.432 132.81,105.985 0,182.661 151.276,270 	"/>
	<polygon style="opacity:0.6;fill:#008CBD;" points="73.065,213.175 158.402,163.905 104.336,133.779 19,183.048 	"/>
	<polygon style="fill:#70CACC;" points="168.246,168.378 81.996,218.029 78.862,216.22 165.113,166.568 	"/>
	<polygon style="fill:#70CACC;" points="174.77,172.143 88.52,221.795 85.385,219.985 171.635,170.333 	"/>
	<polygon style="fill:#70CACC;" points="181.292,175.909 95.042,225.561 91.909,223.753 178.158,174.1 	"/>
	<polygon style="fill:#70CACC;" points="187.816,179.675 101.565,229.326 98.43,227.517 184.68,177.865 	"/>
	<polygon style="fill:#70CACC;" points="194.338,183.44 108.087,233.093 104.953,231.284 191.203,181.631 	"/>
	<linearGradient id="SVGID_2_" gradientUnits="userSpaceOnUse" x1="207.997" y1="112.9709" x2="453.4663" y2="135.8222">
		<stop  offset="0" style="stop-color:#49AFC2"/>
		<stop  offset="1" style="stop-color:#0078AE"/>
	</linearGradient>
	<polygon style="fill:url(#SVGID_2_);" points="480,138.833 347.192,215.51 161.087,108.062 293.898,31.386 	"/>
	<polygon style="opacity:0.6;fill:#008CBD;" points="328.138,190.913 413.475,141.643 359.409,111.517 274.073,160.786 	"/>
	<linearGradient id="SVGID_3_" gradientUnits="userSpaceOnUse" x1="18.9998" y1="169.054" x2="198.3957" y2="169.054">
		<stop  offset="0" style="stop-color:#49AFC2"/>
		<stop  offset="1" style="stop-color:#0078AE"/>
	</linearGradient>
	<polygon style="fill:url(#SVGID_3_);" points="73.065,208.752 158.402,159.482 104.336,129.356 19,178.625 	"/>
	<linearGradient id="SVGID_4_" gradientUnits="userSpaceOnUse" x1="274.0727" y1="146.7921" x2="510.2054" y2="146.7921">
		<stop  offset="0" style="stop-color:#49AFC2"/>
		<stop  offset="1" style="stop-color:#0078AE"/>
	</linearGradient>
	<polygon style="fill:url(#SVGID_4_);" points="328.138,186.49 413.475,137.22 359.409,107.094 274.073,156.363 	"/>
	<polygon style="fill:#70CACC;" points="328.527,138.762 298.738,155.961 295.604,154.152 325.393,136.953 	"/>
	<polygon style="fill:#70CACC;" points="387.923,133.788 358.133,150.986 329.881,134.249 359.671,117.05 	"/>
	<polygon style="fill:none;stroke:#FFFFFF;stroke-miterlimit:10;stroke-dasharray:1,1;" points="387.923,123.422 358.133,140.62 
		329.881,123.883 359.671,106.684 	"/>
	<polygon style="fill:#70CACC;" points="335.051,142.527 305.261,159.727 302.127,157.917 331.917,140.718 	"/>
	<polygon style="fill:#70CACC;" points="341.573,146.294 311.784,163.493 308.65,161.685 338.439,144.485 	"/>
	<polygon style="fill:#70CACC;" points="348.097,150.059 318.306,167.258 315.172,165.45 344.961,148.251 	"/>
	<polygon style="fill:#70CACC;" points="354.62,153.825 324.829,171.025 321.694,169.215 351.484,152.015 	"/>
	<polygon style="fill:#70CACC;" points="423.319,146.116 337.069,195.767 333.935,193.958 420.185,144.306 	"/>
	<polygon style="fill:#70CACC;" points="338.409,73.359 230.321,136.553 178.275,107.387 286.364,44.193 	"/>
	<polygon style="fill:#70CACC;" points="335.856,97.543 249.607,147.196 246.472,145.386 332.722,95.735 	"/>
	<polygon style="fill:#70CACC;" points="342.38,101.31 256.13,150.962 252.996,149.154 339.245,99.502 	"/>
	<polygon style="fill:#70CACC;" points="348.903,105.076 262.651,154.727 259.517,152.918 345.767,103.267 	"/>
	<polygon style="fill:#70CACC;" points="355.426,108.841 269.174,158.494 266.04,156.685 352.291,107.032 	"/>
	<polygon style="opacity:0.4;fill:#008CBD;" points="162.584,150.578 186.485,136.535 132.418,106.409 108.519,120.452 	"/>
	<polygon style="opacity:0.4;fill:#008CBD;" points="198.705,129.57 236.979,107.417 182.912,77.291 144.64,99.443 	"/>
	<polygon style="fill:#70CACC;" points="175.541,93.14 145.751,110.339 142.616,108.53 172.406,91.332 	"/>
	<polygon style="fill:#70CACC;" points="182.064,96.906 152.273,114.106 149.139,112.296 178.929,95.096 	"/>
	
		<line style="fill:none;stroke:#FFFFFF;stroke-miterlimit:10;stroke-dasharray:1,1;" x1="187.797" y1="108.989" x2="187.797" y2="145.575"/>
	<circle style="fill:#FFFFFF;" cx="320.608" cy="158.309" r="2.396"/>
	<linearGradient id="SVGID_5_" gradientUnits="userSpaceOnUse" x1="101.5168" y1="87.6609" x2="240.9195" y2="87.6609">
		<stop  offset="0" style="stop-color:#49AFC2"/>
		<stop  offset="1" style="stop-color:#0078AE"/>
	</linearGradient>
	<polygon style="fill:url(#SVGID_5_);" points="155.582,127.358 240.919,78.089 186.854,47.963 101.517,97.232 	"/>
	<polygon style="fill:#70CACC;" points="155.972,81.843 126.182,99.042 123.048,97.232 152.838,80.034 	"/>
	<polygon style="fill:#70CACC;" points="215.367,76.868 185.577,94.067 157.325,77.329 187.115,60.13 	"/>
	<polygon style="fill:#70CACC;" points="162.495,85.608 132.705,102.807 129.57,100.998 159.361,83.799 	"/>
	<polygon style="fill:#70CACC;" points="169.018,89.374 139.228,106.574 136.094,104.765 165.883,87.565 	"/>
	<polygon style="fill:#70CACC;" points="175.395,92.979 145.605,110.179 142.471,108.369 172.26,91.17 	"/>
	<polygon style="fill:#70CACC;" points="181.917,96.745 152.128,113.945 148.994,112.136 178.783,94.937 	"/>
	<polygon style="fill:#70CACC;" points="73.454,161.025 43.665,178.223 40.531,176.415 70.321,159.215 	"/>
	<polygon style="fill:#70CACC;" points="132.85,156.05 103.06,173.248 74.808,156.511 104.599,139.312 	"/>
	<polygon style="fill:#70CACC;" points="79.978,164.79 50.188,181.989 47.054,180.179 76.844,162.981 	"/>
	<polygon style="fill:#70CACC;" points="86.5,168.556 56.711,185.755 53.577,183.947 83.366,166.748 	"/>
	<polygon style="fill:#70CACC;" points="93.024,172.322 63.233,189.521 60.099,187.711 89.888,170.513 	"/>
	<polygon style="fill:#70CACC;" points="99.547,176.087 69.756,193.288 66.621,191.478 96.411,174.278 	"/>
	<g>
		<g>
			<polyline style="fill:none;stroke:#FFFFFF;stroke-miterlimit:10;stroke-dasharray:1,1;" points="320.671,156.724 
				320.671,145.575 173.296,145.575 83.005,145.575 83.005,166.675 			"/>
			<g>
				<circle style="fill:#FFFFFF;" cx="83.005" cy="166.675" r="1.88"/>
			</g>
		</g>
	</g>
	<g>
		<path style="fill-rule:evenodd;clip-rule:evenodd;fill:#70CACC;" d="M344.896,123.48c0,0,11.647-0.957,16.568-15.644
			c4.539-13.548,11.58-17.167,22.727-14.189c10.962,2.929,8.402,16.32,0.828,25.237c-3.599,4.236-14.451,10.278-22.762,10.478
			C352.244,129.6,344.896,123.48,344.896,123.48z"/>
		<path style="fill-rule:evenodd;clip-rule:evenodd;fill:#49AFC2;" d="M460.253,3.206c-1.342-0.977-40.927,27.72-70.33,71.186
			c-5.709,8.437-6.379,13.904-3.593,15.557c4.827,2.864,20.039-5.737,37.414-30.21c7.263-10.229,17.062-22.286,23.527-32.459
			C455.931,13.65,461.597,4.184,460.253,3.206z"/>
		<path style="fill-rule:evenodd;clip-rule:evenodd;fill:#49AFC2;" d="M384.19,93.646c-0.561-0.149-1.106-0.271-1.647-0.387
			c-0.433,3.615-1.408,7.305-2.971,10.921c-6.443,14.9-20.602,23.406-32.987,20.503c2.718,1.768,8.503,4.848,15.671,4.677
			c8.311-0.199,19.163-6.242,22.762-10.478C392.592,109.966,395.152,96.576,384.19,93.646z"/>
		<path style="fill-rule:evenodd;clip-rule:evenodd;fill:#70CACC;" d="M389.923,74.392c-5.709,8.437-6.379,13.904-3.593,15.557
			c0.175,0.103,0.366,0.187,0.568,0.261l72.628-86.824C453.842,5.996,417.429,33.731,389.923,74.392z"/>
	</g>
</g>
<g id="THE_FEATURES_2">
</g>
</svg>
