<?xml version="1.0" encoding="UTF-8" standalone="no"?><!DOCTYPE svg PUBLIC "-//W3C//DTD SVG 1.1//EN" "http://www.w3.org/Graphics/SVG/1.1/DTD/svg11.dtd"><svg width="100%" height="100%" viewBox="0 0 480 270" version="1.1" xmlns="http://www.w3.org/2000/svg" xmlns:xlink="http://www.w3.org/1999/xlink" xml:space="preserve" xmlns:serif="http://www.serif.com/" style="fill-rule:evenodd;clip-rule:evenodd;stroke-miterlimit:10;"><g id="THE_FEATURES_2"><path d="M383.046,208.538l-3.237,-3.981l-2.513,2.37l-65.717,-37.941c-3.807,-2.199 -10.457,-1.924 -14.854,0.617l-104.618,60.399l-6.457,2.519l0.043,3.955c0.008,1.39 0.853,2.715 2.57,3.706l51.647,29.818l48.373,0l91.168,-52.635c2.414,-1.394 3.646,-3.18 3.638,-4.871l-0.043,-3.956Z" style="fill:#49afc2;fill-opacity:0.3;fill-rule:nonzero;"/><path d="M383.046,205.029l-3.237,-3.981l-2.513,2.37l-65.717,-37.942c-3.807,-2.198 -10.457,-1.923 -14.854,0.617l-104.618,60.399l-6.457,2.519l0.043,3.956c0.008,1.389 0.853,2.715 2.57,3.706l57.727,33.327l36.214,0l97.247,-56.146c2.414,-1.392 3.646,-3.18 3.638,-4.871l-0.043,-3.954Z" style="fill:#0089b5;fill-rule:nonzero;"/><path d="M380.475,201.322l-68.94,-39.8c-3.807,-2.198 -10.457,-1.923 -14.854,0.613l-107.394,62.005c-2.414,1.395 -3.645,3.181 -3.636,4.871c0.007,1.389 0.853,2.714 2.569,3.707l64.578,37.282l22.512,0l104.097,-60.102c2.415,-1.394 3.647,-3.178 3.639,-4.869c-0.008,-1.389 -0.854,-2.715 -2.571,-3.707Z" style="fill:#009bbc;fill-rule:nonzero;"/><path d="M399.4,145.623l0,38.752" style="fill:none;stroke:#fff;stroke-width:1px;stroke-dasharray:1,1;"/><g><path d="M478.952,187.301l-79.974,-46.173c-1.552,-0.897 -4.265,-0.785 -6.057,0.25l-33.404,19.286c-0.995,0.575 -1.506,1.312 -1.506,2.009l0,3.294c0,0.578 0.351,1.13 1.062,1.542l79.933,46.149c1.553,0.895 4.265,0.783 6.057,-0.251l33.454,-19.315c0.98,-0.566 1.483,-1.29 1.483,-1.979l0,-3.294c0,-0.568 -0.344,-1.112 -1.048,-1.518Z" style="fill:#49afc2;fill-opacity:0.3;fill-rule:nonzero;"/><path d="M478.952,183.844l-79.974,-46.173c-1.552,-0.897 -4.265,-0.784 -6.057,0.251l-33.404,19.286c-0.995,0.574 -1.506,1.311 -1.506,2.009l0,3.294c0,0.578 0.351,1.129 1.062,1.543l79.933,46.148c1.553,0.896 4.265,0.784 6.057,-0.251l33.454,-19.315c0.98,-0.565 1.483,-1.29 1.483,-1.979l0,-3.294c0,-0.568 -0.344,-1.112 -1.048,-1.519Z" style="fill:#0089b5;fill-rule:nonzero;"/><path d="M478.517,187.342l-33.454,19.314c-1.792,1.035 -4.504,1.147 -6.057,0.251l-79.933,-46.149c-1.574,-0.909 -1.377,-2.498 0.443,-3.55l33.404,-19.286c1.793,-1.036 4.506,-1.148 6.057,-0.251l79.974,46.173c1.553,0.896 1.359,2.463 -0.434,3.498Z" style="fill:#009bbc;fill-rule:nonzero;"/><path d="M478.517,187.342l-33.454,19.314c-1.792,1.035 -4.504,1.147 -6.057,0.251l-79.933,-46.149c-0.712,-0.412 -1.062,-0.963 -1.062,-1.541c0,-0.698 0.51,-1.434 1.506,-2.009l33.404,-19.286c1.793,-1.036 4.506,-1.148 6.057,-0.251l79.974,46.173c1.552,0.896 1.358,2.463 -0.435,3.498Z" style="fill:url(#_Linear1);fill-rule:nonzero;"/><path d="M464.91,178.724l-34.558,19.952l-68.454,-39.52l34.56,-19.954l68.452,39.522Z" style="fill:#49afc2;fill-rule:nonzero;"/><path d="M464.91,178.724l-34.558,19.952l-68.454,-39.52l34.56,-19.954l68.452,39.522Z" style="fill:#0078ae;fill-rule:nonzero;"/><path d="M464.91,162.22l-34.558,19.953l-68.454,-39.522l34.56,-19.952l68.452,39.521Z" style="fill:#70cacc;fill-opacity:0.8;fill-rule:nonzero;"/><path d="M408.552,129.705l-34.559,19.951l-12.095,-7.005l34.56,-19.952l12.094,7.006Z" style="fill:url(#_Linear2);fill-rule:nonzero;"/><g><path d="M448.673,158.435l-24.224,13.987l-2.333,-1.347l24.226,-13.986l2.331,1.346Z" style="fill:#0078ae;fill-rule:nonzero;"/><path d="M437.017,151.706l-24.223,13.985l-2.33,-1.344l24.223,-13.986l2.33,1.345Z" style="fill:#0078ae;fill-rule:nonzero;"/><path d="M440.902,153.948l-24.225,13.987l-2.33,-1.345l24.223,-13.986l2.332,1.344Z" style="fill:#0078ae;fill-rule:nonzero;"/><path d="M444.787,156.192l-24.224,13.986l-2.331,-1.346l24.224,-13.985l2.331,1.345Z" style="fill:#0078ae;fill-rule:nonzero;"/></g><path d="M403.279,129.458l-6.529,3.681l-1.486,-0.859l6.528,-3.681l1.487,0.859Z" style="fill:#fff;fill-rule:nonzero;"/><path d="M398.322,126.596l-6.528,3.68l-1.487,-0.857l6.528,-3.681l1.487,0.858Z" style="fill:#fff;fill-rule:nonzero;"/><path d="M400.799,128.026l-6.525,3.682l-1.489,-0.858l6.529,-3.682l1.485,0.858Z" style="fill:#fff;fill-rule:nonzero;"/><path d="M432.913,149.315l-24.223,13.987l-23.311,-13.457l24.224,-13.988l23.31,13.458Z" style="fill:url(#_Linear3);fill-rule:nonzero;"/><path d="M408.69,163.302l-5.411,-10.335l12.859,0.65l-5.468,-10.305l15.248,1.965l6.995,4.038l-24.223,13.987Z" style="fill:#0078ae;fill-rule:nonzero;"/><path d="M407.475,144.103c1.026,0.593 1.138,1.49 0.25,2.002c-0.891,0.513 -2.444,0.449 -3.47,-0.144c-1.027,-0.593 -1.137,-1.488 -0.25,-2.002c0.891,-0.512 2.443,-0.449 3.47,0.144Z" style="fill:#0078ae;fill-rule:nonzero;"/><path d="M458.867,190.09c2.363,1.364 2.363,3.576 0,4.942c-2.364,1.365 -6.196,1.365 -8.561,0c-2.363,-1.366 -2.363,-3.578 0.001,-4.942c2.365,-1.364 6.196,-1.364 8.56,0Z" style="fill:url(#_Linear4);fill-rule:nonzero;"/><path d="M430.387,182.467l0,16.466" style="fill:none;stroke:#fff;stroke-width:1px;stroke-dasharray:1,1;"/><path d="M463.559,163.857l0,16.468" style="fill:none;stroke:#fff;stroke-width:1px;stroke-dasharray:1,1;"/><path d="M363.1,144.051l0,16.466" style="fill:none;stroke:#fff;stroke-width:1px;stroke-dasharray:1,1;"/></g><g><path d="M166.67,224.901c0.011,2.059 -1.491,4.235 -4.428,5.932l-49.774,28.737c-5.354,3.091 -13.453,3.427 -18.089,0.75l-27.067,-15.753c-2.092,-1.208 -3.121,-2.821 -3.13,-4.516c-0.012,-2.059 1.489,-4.229 4.428,-5.928l49.774,-28.737c5.356,-3.093 13.453,-3.427 18.088,-0.752l27.067,15.756c2.093,1.204 3.124,2.82 3.131,4.511Z" style="fill:#49afc2;fill-opacity:0.3;fill-rule:nonzero;"/><path d="M166.67,214.755l-3.103,0.541l-27.067,-15.753c-4.637,-2.676 -12.735,-2.341 -18.088,0.751l-49.774,28.738c-0.815,0.47 -1.505,0.978 -2.098,1.508l0,-0.215l-2.357,-0.419l0.025,5.055c0.009,1.692 1.039,3.306 3.13,4.512l27.067,15.756c4.637,2.677 12.735,2.34 18.089,-0.751l49.773,-28.737c2.941,-1.696 4.441,-3.871 4.431,-5.931l-0.028,-5.055Z" style="fill:#0089b5;fill-rule:nonzero;"/><path d="M166.67,216.465c0.011,2.059 -1.491,4.235 -4.428,5.931l-49.774,28.738c-5.354,3.09 -13.453,3.427 -18.089,0.749l-27.067,-15.753c-2.092,-1.208 -3.121,-2.821 -3.13,-4.515c-0.012,-2.059 1.489,-4.23 4.428,-5.929l49.774,-28.738c5.356,-3.092 13.453,-3.426 18.088,-0.752l27.067,15.756c2.093,1.206 3.124,2.823 3.131,4.513Z" style="fill:#49afc2;fill-rule:nonzero;"/><path d="M138.076,219.504l-19.035,-10.991c-6.66,-3.842 -14.204,-12.143 -14.204,-19.788l0,-21.843l-28.949,16.941l0,21.845c0,7.642 5.4,16.957 12.06,20.802l19.035,10.99l31.093,-17.956" style="fill:#009bbc;fill-rule:nonzero;"/><path d="M188.146,19.314l-5.183,-2.955c-1.813,-1.034 -4.176,-0.929 -6.757,0.564l-165.841,95.746c-5.724,3.306 -10.365,9.595 -10.365,19.804l0,95.193c0,4.19 1.398,7.137 3.607,8.396l5.183,2.956l3.22,-3.65l-0.384,-0.595l164.58,-95.019c5.723,-3.307 10.363,-12.171 10.363,-19.804l0,-95.194c0,-1.158 -0.115,-2.21 -0.317,-3.17l1.453,-2.272l0.441,0Z" style="fill:url(#_Linear5);fill-rule:nonzero;"/><path d="M181.388,142.708l-165.84,95.749c-2.583,1.488 -4.945,1.594 -6.758,0.561c-2.21,-1.26 -3.608,-4.209 -3.608,-8.398l0,-95.191c0,-9.369 4.641,-16.501 10.366,-19.804l165.84,-95.75c2.581,-1.488 4.942,-1.597 6.758,-0.561c2.207,1.262 3.605,4.205 3.605,8.399l0,95.189c0,11.762 -3.678,15.947 -10.363,19.806Z" style="fill:url(#_Linear6);fill-rule:nonzero;"/><path d="M183.994,130.746l-171.053,98.755l0,-101.165l171.053,-98.757l0,101.167Z" style="fill:#0078ae;fill-rule:nonzero;"/><path d="M11.771,228.528l28.173,15.083" style="fill:none;stroke:#fff;stroke-width:1px;stroke-dasharray:1,1;"/><path d="M13.037,127.726l26.117,13.768" style="fill:none;stroke:#fff;stroke-width:1px;stroke-dasharray:1,1;"/><path d="M180.057,130.256l29.47,15.777" style="fill:none;stroke:#fff;stroke-width:1px;stroke-dasharray:1,1;"/><path d="M181.324,29.454l26.696,14.073" style="fill:none;stroke:#fff;stroke-width:1px;stroke-dasharray:1,1;"/><g><path d="M37.836,243.913l170.857,-98.332l-0.382,-102.088l-170.856,98.715l0.381,101.705Z" style="fill:#70cacc;fill-opacity:0.8;fill-rule:nonzero;"/><path d="M58.072,194.887l62.519,-35.903l0.009,-4.774l-62.521,35.903l-0.007,4.774Z" style="fill:#0078ae;fill-rule:nonzero;"/><path d="M58.112,171.021l62.519,-35.901l0.009,-4.773l-62.519,35.901l-0.009,4.773Z" style="fill:#0078ae;fill-rule:nonzero;"/><path d="M58.097,178.976l62.522,-35.902l0.008,-4.773l-62.52,35.902l-0.01,4.773Z" style="fill:#0078ae;fill-rule:nonzero;"/><path d="M58.085,186.93l62.519,-35.899l0.01,-4.775l-62.521,35.903l-0.008,4.771Z" style="fill:#0078ae;fill-rule:nonzero;"/><path d="M127.028,181.671l63.098,-36.38l0.009,-4.771l-63.098,36.378l-0.009,4.773Z" style="fill:#0078ae;fill-rule:nonzero;"/><path d="M127.014,189.626l63.1,-36.38l0.009,-4.772l-63.101,36.379l-0.008,4.773Z" style="fill:#0078ae;fill-rule:nonzero;"/><path d="M126.748,173.046l63.306,-37.091l0.081,-47.734l-63.308,37.094l-0.079,47.731Z" style="fill:url(#_Linear7);fill-rule:nonzero;"/><path d="M169.746,148.319l-11.045,-17.493l-10.438,20.308l-10.948,-17.554l-10.544,25.144l-0.023,14.322l42.998,-24.727Z" style="fill:#0078ae;fill-rule:nonzero;"/><path d="M37.447,166.993l170.816,-98.271l0.009,-24.787l-170.817,98.273l-0.008,24.785Z" style="fill:#0078ae;fill-opacity:0.8;fill-rule:nonzero;"/><path d="M47.078,152.295l20.494,-12.18l0.005,-3.047l-20.495,12.182l-0.004,3.045Z" style="fill:#fff;fill-rule:nonzero;"/><path d="M72.476,137.446l20.495,-12.181l0.004,-3.046l-20.495,12.183l-0.004,3.044Z" style="fill:#fff;fill-rule:nonzero;"/><path d="M97.641,122.827l20.493,-12.181l0.005,-3.044l-20.494,12.181l-0.004,3.044Z" style="fill:#fff;fill-rule:nonzero;"/></g></g><path d="M303.511,63.472l-3.447,-1.966c-1.207,-0.687 -2.777,-0.619 -4.496,0.373l-110.301,63.683c-3.808,2.199 -6.894,4.867 -6.894,13.172l0,78.759c0,2.787 0.93,4.747 2.399,5.583l3.448,1.967l2.142,-2.427l-0.257,-0.395l109.463,-63.199c3.808,-2.198 6.895,-8.096 6.895,-13.171l0,-78.76c0,-0.771 -0.077,-1.471 -0.213,-2.109l0.968,-1.51l0.293,0Z" style="fill:#009bbc;fill-rule:nonzero;"/><path d="M299.016,160.988l-110.303,63.683c-1.716,0.991 -3.287,1.062 -4.494,0.373c-1.47,-0.837 -2.4,-2.797 -2.4,-5.585l0,-78.759c0,-6.41 3.086,-10.974 6.893,-13.171l110.303,-63.684c1.717,-0.992 3.287,-1.062 4.495,-0.373c1.468,0.838 2.399,2.799 2.399,5.585l0,78.758c0,5.077 -3.086,10.975 -6.893,13.173Z" style="fill:url(#_Linear8);fill-rule:nonzero;"/><path d="M300.749,153.31l-113.768,65.683l0,-82.906l113.768,-65.684l0,82.907Z" style="fill:#0078ae;fill-rule:nonzero;"/><path d="M353.402,191.614l-113.058,65.274l-48.549,-28.03l113.059,-65.275l48.548,28.031Z" style="fill:#70cacc;fill-rule:nonzero;"/><path d="M355.788,192.991l-113.058,65.274l-50.935,-29.407l113.059,-65.275l50.934,29.408Z" style="fill:#0078ae;fill-rule:nonzero;"/><path d="M333.357,228.579l-28.987,16.738l-17.936,-10.357l28.988,-16.736l17.935,10.355Z" style="fill:#0089b5;fill-rule:nonzero;"/><path d="M298.841,164.269l-11.248,6.494" style="fill:none;stroke:#0078ae;stroke-width:0.5px;"/><path d="M186.659,217.461l26.885,14.392" style="fill:none;stroke:#fff;stroke-width:1px;stroke-dasharray:1,1;"/><path d="M186.659,136.958l47.901,25.644" style="fill:none;stroke:#fff;stroke-width:1px;stroke-dasharray:1,1;"/><path d="M300.393,72.369l26.111,13.978" style="fill:none;stroke:#fff;stroke-width:1px;stroke-dasharray:1,1;"/><path d="M262.416,149.537c-0.003,1.69 1.024,2.469 2.293,1.739c1.269,-0.73 2.301,-2.692 2.303,-4.382c0.003,-1.691 -1.023,-2.469 -2.294,-1.74c-1.267,0.731 -2.298,2.692 -2.302,4.383Z" style="fill:#0078ae;fill-rule:nonzero;"/><g><path d="M213.072,230.983l113.159,-65.19l-0.307,-82.102l-113.158,65.496l0.306,81.796Z" style="fill:#70cacc;fill-opacity:0.8;fill-rule:nonzero;"/><path d="M233.026,188.984l34.582,-19.89l0.008,-3.84l-34.583,19.89l-0.007,3.84Z" style="fill:#0078ae;fill-rule:nonzero;"/><path d="M233.059,169.789l34.581,-19.888l0.007,-3.838l-34.581,19.889l-0.007,3.837Z" style="fill:#0078ae;fill-rule:nonzero;"/><path d="M233.047,176.188l34.583,-19.89l0.008,-3.838l-34.583,19.889l-0.008,3.839Z" style="fill:#0078ae;fill-rule:nonzero;"/><path d="M233.038,182.585l34.581,-19.889l0.007,-3.839l-34.582,19.89l-0.006,3.838Z" style="fill:#0078ae;fill-rule:nonzero;"/><path d="M272.785,187.339l34.581,-19.888l0.007,-3.838l-34.581,19.888l-0.007,3.838Z" style="fill:#0078ae;fill-rule:nonzero;"/><path d="M272.773,193.738l34.583,-19.89l0.006,-3.838l-34.582,19.889l-0.007,3.839Z" style="fill:#0078ae;fill-rule:nonzero;"/><path d="M272.559,180.402l34.582,-19.886l0.065,-38.388l-34.582,19.888l-0.065,38.386Z" style="fill:url(#_Linear9);fill-rule:nonzero;"/><path d="M307.141,160.516l-8.883,-14.068l-8.396,16.332l-8.805,-14.117l-8.479,20.221l-0.019,11.518l34.582,-19.886Z" style="fill:#0078ae;fill-rule:nonzero;"/><path d="M212.759,168.816l113.773,-65.19l0.006,-19.935l-113.772,65.19l-0.007,19.935Z" style="fill:#0078ae;fill-opacity:0.8;fill-rule:nonzero;"/><path d="M219.984,155.88l16.482,-9.797l0.004,-2.449l-16.482,9.797l-0.004,2.449Z" style="fill:#fff;fill-rule:nonzero;"/><path d="M240.41,143.938l16.48,-9.796l0.007,-2.45l-16.483,9.798l-0.004,2.448Z" style="fill:#fff;fill-rule:nonzero;"/><path d="M260.649,132.181l16.48,-9.796l0.005,-2.449l-16.482,9.796l-0.003,2.449Z" style="fill:#fff;fill-rule:nonzero;"/></g></g><defs><linearGradient id="_Linear1" x1="0" y1="0" x2="1" y2="0" gradientUnits="userSpaceOnUse" gradientTransform="matrix(-293.563,-29.7316,29.7316,-293.563,479.888,178.456)"><stop offset="0" style="stop-color:#49afc2;stop-opacity:1"/><stop offset="1" style="stop-color:#0078ae;stop-opacity:1"/></linearGradient><linearGradient id="_Linear2" x1="0" y1="0" x2="1" y2="0" gradientUnits="userSpaceOnUse" gradientTransform="matrix(30.4396,-84.9934,84.9934,30.4396,375.728,162.695)"><stop offset="0" style="stop-color:#49afc2;stop-opacity:1"/><stop offset="1" style="stop-color:#0078ae;stop-opacity:1"/></linearGradient><linearGradient id="_Linear3" x1="0" y1="0" x2="1" y2="0" gradientUnits="userSpaceOnUse" gradientTransform="matrix(47.5336,0,0,47.5336,385.379,149.579)"><stop offset="0" style="stop-color:#49afc2;stop-opacity:1"/><stop offset="1" style="stop-color:#0078ae;stop-opacity:1"/></linearGradient><linearGradient id="_Linear4" x1="0" y1="0" x2="1" y2="0" gradientUnits="userSpaceOnUse" gradientTransform="matrix(49.7877,-4.8279,4.8279,49.7877,433.543,194.602)"><stop offset="0" style="stop-color:#49afc2;stop-opacity:1"/><stop offset="1" style="stop-color:#0078ae;stop-opacity:1"/></linearGradient><linearGradient id="_Linear5" x1="0" y1="0" x2="1" y2="0" gradientUnits="userSpaceOnUse" gradientTransform="matrix(159.165,94.2946,-94.2946,159.165,-65.3892,32.1488)"><stop offset="0" style="stop-color:#49afc2;stop-opacity:1"/><stop offset="1" style="stop-color:#0078ae;stop-opacity:1"/></linearGradient><linearGradient id="_Linear6" x1="0" y1="0" x2="1" y2="0" gradientUnits="userSpaceOnUse" gradientTransform="matrix(198.232,-299.456,299.456,198.232,77.7724,161.006)"><stop offset="0" style="stop-color:#49afc2;stop-opacity:1"/><stop offset="1" style="stop-color:#0078ae;stop-opacity:1"/></linearGradient><linearGradient id="_Linear7" x1="0" y1="0" x2="1" y2="0" gradientUnits="userSpaceOnUse" gradientTransform="matrix(-52.7435,90.9943,-90.9943,-52.7435,184.813,85.1364)"><stop offset="0" style="stop-color:#49afc2;stop-opacity:1"/><stop offset="1" style="stop-color:#0078ae;stop-opacity:1"/></linearGradient><linearGradient id="_Linear8" x1="0" y1="0" x2="1" y2="0" gradientUnits="userSpaceOnUse" gradientTransform="matrix(113.266,-134.796,134.796,113.266,230.273,160.31)"><stop offset="0" style="stop-color:#49afc2;stop-opacity:1"/><stop offset="1" style="stop-color:#0078ae;stop-opacity:1"/></linearGradient><linearGradient id="_Linear9" x1="0" y1="0" x2="1" y2="0" gradientUnits="userSpaceOnUse" gradientTransform="matrix(-33.9962,58.6511,-58.6511,-33.9962,306.881,121.94)"><stop offset="0" style="stop-color:#49afc2;stop-opacity:1"/><stop offset="1" style="stop-color:#0078ae;stop-opacity:1"/></linearGradient></defs></svg>