<?xml version="1.0" encoding="iso-8859-1"?>
<!-- Generator: Adobe Illustrator 21.1.0, SVG Export Plug-In . SVG Version: 6.00 Build 0)  -->
<svg version="1.1" xmlns="http://www.w3.org/2000/svg" xmlns:xlink="http://www.w3.org/1999/xlink" x="0px" y="0px"
	 viewBox="0 0 480 270" style="enable-background:new 0 0 480 270;" xml:space="preserve">
<g id="Layer_1">
</g>
<g id="The_Features">
	<g>
		<linearGradient id="SVGID_1_" gradientUnits="userSpaceOnUse" x1="390.0245" y1="153.9471" x2="216.6551" y2="144.9795">
			<stop  offset="0" style="stop-color:#49AFC2"/>
			<stop  offset="1" style="stop-color:#0078AE"/>
		</linearGradient>
		<polygon style="fill:url(#SVGID_1_);" points="480,169.125 347.916,245.384 149.792,130.997 281.876,54.738 		"/>
		<polygon style="fill:#0078AE;" points="430.289,162.6 342.233,213.44 276.192,175.311 364.248,124.471 		"/>
		<polygon style="fill:none;stroke:#FFFFFF;stroke-miterlimit:10;stroke-dasharray:1,1;" points="430.289,153.631 342.233,204.47 
			276.192,166.341 364.248,115.502 		"/>
		<linearGradient id="SVGID_2_" gradientUnits="userSpaceOnUse" x1="-114.5057" y1="201.4369" x2="582.061" y2="285.6223">
			<stop  offset="0" style="stop-color:#49AFC2"/>
			<stop  offset="1" style="stop-color:#0078AE"/>
		</linearGradient>
		<polygon style="opacity:0.7;fill:url(#SVGID_2_);" points="318.033,251.071 285.041,269.621 262.265,269.712 229.978,251.072 
			274.005,225.652 		"/>
		<linearGradient id="SVGID_3_" gradientUnits="userSpaceOnUse" x1="-75.3237" y1="164.1584" x2="621.2416" y2="248.3436">
			<stop  offset="0" style="stop-color:#49AFC2"/>
			<stop  offset="1" style="stop-color:#0078AE"/>
		</linearGradient>
		<polygon style="fill:url(#SVGID_3_);" points="242.152,197.206 198.124,222.626 154.097,197.206 198.124,171.787 		"/>
		<linearGradient id="SVGID_4_" gradientUnits="userSpaceOnUse" x1="-79.596" y1="199.5058" x2="616.9711" y2="283.6913">
			<stop  offset="0" style="stop-color:#49AFC2"/>
			<stop  offset="1" style="stop-color:#0078AE"/>
		</linearGradient>
		<polygon style="fill:url(#SVGID_4_);" points="190.786,226.862 146.758,252.282 102.731,226.863 146.758,201.443 		"/>
		<linearGradient id="SVGID_5_" gradientUnits="userSpaceOnUse" x1="-22.6757" y1="116.68" x2="673.8936" y2="200.8658">
			<stop  offset="0" style="stop-color:#49AFC2"/>
			<stop  offset="1" style="stop-color:#0078AE"/>
		</linearGradient>
		<polygon style="fill:url(#SVGID_5_);" points="240.643,143.183 196.615,168.602 152.587,143.183 196.615,117.764 		"/>
		<polygon style="fill:#0078AE;" points="95.393,218.108 51.364,243.528 7.338,218.109 51.365,192.689 		"/>
		<linearGradient id="SVGID_6_" gradientUnits="userSpaceOnUse" x1="-69.7384" y1="117.9372" x2="626.8301" y2="202.1228">
			<stop  offset="0" style="stop-color:#49AFC2"/>
			<stop  offset="1" style="stop-color:#0078AE"/>
		</linearGradient>
		<polygon style="opacity:0.7;fill:url(#SVGID_6_);" points="139.421,137.895 95.393,163.314 51.365,137.895 95.393,112.475 		"/>
		<linearGradient id="SVGID_7_" gradientUnits="userSpaceOnUse" x1="-74.0099" y1="153.2847" x2="622.558" y2="237.4702">
			<stop  offset="0" style="stop-color:#49AFC2"/>
			<stop  offset="1" style="stop-color:#0078AE"/>
		</linearGradient>
		<polygon style="fill:url(#SVGID_7_);" points="88.055,167.55 44.027,192.97 0,167.551 44.028,142.131 		"/>
		<linearGradient id="SVGID_8_" gradientUnits="userSpaceOnUse" x1="-66.9448" y1="94.8269" x2="629.6229" y2="179.0125">
			<stop  offset="0" style="stop-color:#49AFC2"/>
			<stop  offset="1" style="stop-color:#0078AE"/>
		</linearGradient>
		<polygon style="opacity:0.3;fill:url(#SVGID_8_);" points="88.056,108.239 44.028,133.658 0,108.239 44.028,82.82 		"/>
		<linearGradient id="SVGID_9_" gradientUnits="userSpaceOnUse" x1="-114.0477" y1="207.6107" x2="582.519" y2="291.7961">
			<stop  offset="0" style="stop-color:#49AFC2"/>
			<stop  offset="1" style="stop-color:#0078AE"/>
		</linearGradient>
		<polygon style="opacity:0.26;fill:url(#SVGID_9_);" points="318.033,261.034 302.858,269.754 245.836,270 229.978,261.035 
			274.005,235.615 		"/>
		<linearGradient id="SVGID_10_" gradientUnits="userSpaceOnUse" x1="-75.3237" y1="174.1221" x2="621.2417" y2="258.3074">
			<stop  offset="0" style="stop-color:#49AFC2"/>
			<stop  offset="1" style="stop-color:#0078AE"/>
		</linearGradient>
		<polygon style="opacity:0.26;fill:url(#SVGID_10_);" points="242.152,207.17 198.124,232.59 154.097,207.17 198.124,181.751 		"/>
		<linearGradient id="SVGID_11_" gradientUnits="userSpaceOnUse" x1="-79.596" y1="209.4695" x2="616.9711" y2="293.655">
			<stop  offset="0" style="stop-color:#49AFC2"/>
			<stop  offset="1" style="stop-color:#0078AE"/>
		</linearGradient>
		<polygon style="opacity:0.26;fill:url(#SVGID_11_);" points="190.786,236.826 146.758,262.246 102.731,236.827 146.758,211.406 		
			"/>
		<linearGradient id="SVGID_12_" gradientUnits="userSpaceOnUse" x1="-22.6757" y1="126.6438" x2="673.8936" y2="210.8295">
			<stop  offset="0" style="stop-color:#49AFC2"/>
			<stop  offset="1" style="stop-color:#0078AE"/>
		</linearGradient>
		<polygon style="opacity:0.26;fill:url(#SVGID_12_);" points="240.643,153.147 196.615,178.566 152.587,153.147 196.615,127.728 		
			"/>
		<linearGradient id="SVGID_13_" gradientUnits="userSpaceOnUse" x1="-120.8314" y1="207.2612" x2="575.7361" y2="291.4467">
			<stop  offset="0" style="stop-color:#49AFC2"/>
			<stop  offset="1" style="stop-color:#0078AE"/>
		</linearGradient>
		<polygon style="opacity:0.26;fill:url(#SVGID_13_);" points="95.393,228.072 51.364,253.492 7.338,228.073 51.365,202.653 		"/>
		<linearGradient id="SVGID_14_" gradientUnits="userSpaceOnUse" x1="-69.7384" y1="127.9009" x2="626.8301" y2="212.0865">
			<stop  offset="0" style="stop-color:#49AFC2"/>
			<stop  offset="1" style="stop-color:#0078AE"/>
		</linearGradient>
		<polygon style="opacity:0.26;fill:url(#SVGID_14_);" points="139.421,147.858 95.393,173.278 51.365,147.858 95.393,122.439 		"/>
		<linearGradient id="SVGID_15_" gradientUnits="userSpaceOnUse" x1="-74.0099" y1="163.2484" x2="622.558" y2="247.434">
			<stop  offset="0" style="stop-color:#49AFC2"/>
			<stop  offset="1" style="stop-color:#0078AE"/>
		</linearGradient>
		<polygon style="opacity:0.26;fill:url(#SVGID_15_);" points="88.055,177.514 44.027,202.933 0,177.515 44.028,152.095 		"/>
		<linearGradient id="SVGID_16_" gradientUnits="userSpaceOnUse" x1="-66.9448" y1="104.7907" x2="629.6229" y2="188.9762">
			<stop  offset="0" style="stop-color:#49AFC2"/>
			<stop  offset="1" style="stop-color:#0078AE"/>
		</linearGradient>
		<polygon style="opacity:0.26;fill:url(#SVGID_16_);" points="88.056,118.203 44.028,143.622 0,118.203 44.028,92.783 		"/>
		<path style="fill:#FFFFFF;" d="M246.283,250.502l27.613,15.942l27.611-15.941l-27.612-15.942L246.283,250.502z M257.165,247.01
			l4.14-2.389l10.698,6.177l2.416,1.394l-4.141,2.391L257.165,247.01z M263.72,243.226l4.128-2.383l8.281,4.782l-4.127,2.381
			L263.72,243.226z M296.673,250.503l-22.778,13.151l-22.778-13.15l3.632-2.098l15.53,8.966l8.973-5.18l-4.832-2.79l6.544-3.777
			l-10.698-6.177l3.63-2.097L296.673,250.503z"/>
		<g>
			<polygon style="fill:#FFFFFF;" points="189.759,191.673 196.719,187.656 199.135,189.051 201.786,183.335 191.886,184.866 
				194.301,186.261 187.342,190.278 184.927,188.883 182.273,194.6 192.176,193.069 			"/>
			<polygon style="fill:#FFFFFF;" points="192.099,201.344 182.197,199.813 184.85,205.528 187.266,204.133 194.227,208.153 
				191.811,209.547 201.71,211.079 199.059,205.362 196.643,206.757 189.682,202.739 			"/>
			<path style="fill:#FFFFFF;" d="M207.751,207.591l17.948-10.363l-17.964-10.371l-17.948,10.363L207.751,207.591z M194.619,197.22
				l13.116-7.573l13.132,7.581l-13.116,7.574L194.619,197.22z"/>
		</g>
		<g>
			<path style="fill:#FFFFFF;" d="M49.716,156.976l-1.34,0.772c-0.582-0.203-1.35-0.4-2.293-0.596
				c-0.95-0.195-1.894-0.348-2.841-0.461c-0.985-0.12-1.932-0.176-2.841-0.168c-0.91,0.008-1.607,0.115-2.101,0.325
				c-0.456,0.204-0.997,0.472-1.632,0.808c-0.639,0.34-1.216,0.658-1.735,0.957l-1.127,0.65l22.086,12.752
				c0.428,0.247,0.912,0.422,1.452,0.521c0.536,0.102,1.129,0.076,1.775-0.069c0.323-0.083,0.937-0.295,1.835-0.634
				c0.9-0.34,1.564-0.626,1.991-0.856l1.38,0.797l-13,7.506l-1.381-0.796c0.333-0.224,0.837-0.574,1.503-1.049
				c0.666-0.473,1.083-0.827,1.247-1.058c0.261-0.344,0.332-0.666,0.214-0.966c-0.117-0.299-0.445-0.601-0.977-0.909l-22.26-12.852
				l-1.124,0.649c-0.4,0.231-0.889,0.523-1.465,0.881c-0.574,0.352-1.103,0.707-1.582,1.059c-0.373,0.275-0.562,0.68-0.559,1.21
				c-0.003,0.531,0.1,1.076,0.295,1.638c0.196,0.561,0.472,1.117,0.829,1.668c0.356,0.55,0.689,0.983,1.003,1.296l-1.36,0.785
				l-7.492-4.325l24.007-13.861L49.716,156.976z"/>
		</g>
		<linearGradient id="SVGID_17_" gradientUnits="userSpaceOnUse" x1="50.6651" y1="192.6065" x2="747.2336" y2="276.7921">
			<stop  offset="0" style="stop-color:#49AFC2"/>
			<stop  offset="1" style="stop-color:#0078AE"/>
		</linearGradient>
		<polygon style="opacity:0.26;fill:url(#SVGID_17_);" points="429.366,233.054 385.337,258.474 341.31,233.054 385.339,207.635 		
			"/>
		<g style="opacity:0.7;">
			<polygon style="fill:#FFFFFF;" points="85.538,149.108 114.814,132.204 112.398,130.81 83.122,147.712 			"/>
			<polygon style="fill:#FFFFFF;" points="78.284,144.919 107.56,128.016 105.144,126.622 75.868,143.525 			"/>
			<polygon style="fill:#FFFFFF;" points="68.618,139.339 71.035,140.734 100.311,123.831 97.894,122.436 			"/>
			<polygon style="fill:#FFFFFF;" points="92.893,153.354 114.287,141.001 111.87,139.606 90.476,151.959 			"/>
		</g>
		<g>
			<path style="fill:#FFFFFF;" d="M65.072,210.863c-1.289-0.123-2.487-0.013-3.562,0.321c-0.481,0.151-0.96,0.305-1.488,0.477
				c-0.905,0.294-1.811,0.588-2.749,0.847c-0.794,0.218-1.612,0.354-2.365,0.391c-0.63,0.029-1.113-0.053-1.433-0.243
				c-0.333-0.199-0.463-0.496-0.385-0.885c0.052-0.254,0.166-0.503,0.281-0.757l0.089-0.202c0.074-0.169,0.157-0.337,0.25-0.528
				c0.15-0.302,0.299-0.605,0.393-0.916c0.179-0.586-0.032-1.099-0.594-1.447c-0.547-0.339-1.39-0.492-2.377-0.434
				c-0.887,0.055-1.857,0.23-2.808,0.51c-2.238,0.663-4.028,1.644-5.176,2.331l-0.002,0.001c-3.622,2.16-5.841,4.14-7.193,6.421
				c-1.502,2.536-1.694,4.698-0.605,6.803c1.293,2.501,4.143,4.054,8.472,4.616c2.412,0.313,4.778,0.294,7.03-0.059
				c4.477-0.702,8.27-1.947,11.345-3.723c2.143-1.237,3.937-2.731,5.375-4.477c1.901-2.314,2.322-4.696,1.248-7.083
				C68.308,211.694,67.082,211.05,65.072,210.863z M65.509,213.321c0.867,1.929,0.522,3.861-1.027,5.745
				c-1.263,1.534-2.847,2.855-4.704,3.927c-2.643,1.525-5.948,2.606-9.824,3.213c-1.705,0.268-3.517,0.282-5.383,0.039
				c-3.12-0.405-5.011-1.44-5.95-3.257c-0.887-1.713-0.714-3.441,0.565-5.599c1.181-1.992,3.159-3.744,6.415-5.686l0.395-0.234
				c1.354-0.781,2.627-1.343,3.887-1.716c0.207-0.06,0.413-0.114,0.616-0.159c-0.023,0.05-0.442,0.939-0.442,0.939
				c-0.149,0.329-0.291,0.665-0.361,1.011c-0.196,0.974,0.273,1.857,1.322,2.483c1.044,0.622,2.523,0.918,4.176,0.837
				c1.157-0.056,2.386-0.254,3.554-0.577c0.995-0.274,1.959-0.586,2.92-0.895c0.539-0.177,1-0.325,1.462-0.469
				c0.26-0.08,0.684-0.179,1.391-0.113C65.203,212.873,65.339,212.944,65.509,213.321z"/>
			<path style="fill:#FFFFFF;" d="M40.834,222.804c0.765,0.451,2.328,0.27,3.518-0.407c1.163-0.663,1.522-1.616,0.772-2.049
				c-0.763-0.438-2.34-0.235-3.533,0.453C40.416,221.483,40.086,222.361,40.834,222.804z"/>
			<path style="fill:#FFFFFF;" d="M61.726,218.033c1.16-0.67,1.509-1.573,0.778-2.014c-0.74-0.445-2.357-0.254-3.535,0.417
				c-1.181,0.671-1.525,1.594-0.761,2.037C58.986,218.926,60.512,218.734,61.726,218.033z"/>
			<path style="fill:#FFFFFF;" d="M51.568,220.709c-1.182,0.688-1.512,1.603-0.726,2.029c0.772,0.42,2.334,0.224,3.491-0.438
				c1.175-0.669,1.519-1.6,0.757-2.037C54.318,219.817,52.766,220.013,51.568,220.709z"/>
			<path style="fill:#FFFFFF;" d="M47.287,215.786c1.193-0.675,1.551-1.6,0.792-2.038c-0.745-0.43-2.311-0.247-3.482,0.405
				c-1.189,0.662-1.56,1.594-0.813,2.043C44.545,216.656,46.07,216.477,47.287,215.786z"/>
		</g>
		<linearGradient id="SVGID_18_" gradientUnits="userSpaceOnUse" x1="1.4606" y1="188.5417" x2="698.0287" y2="272.7273">
			<stop  offset="0" style="stop-color:#49AFC2"/>
			<stop  offset="1" style="stop-color:#0078AE"/>
		</linearGradient>
		<polygon style="opacity:0.26;fill:url(#SVGID_18_);" points="326.002,222.444 281.974,247.863 237.947,222.444 281.974,197.025 		
			"/>
		<g>
			<path style="fill:#FFFFFF;" d="M190.736,143.073c0.856,0.494,0.875,1.284,0.043,1.763c-0.832,0.48-2.198,0.469-3.053-0.024
				c-0.856-0.494-0.875-1.283-0.043-1.763C188.514,142.568,189.88,142.58,190.736,143.073z"/>
			<polygon style="fill:#FFFFFF;" points="196.142,139.953 198.06,147.747 192.087,147.258 193.668,153.683 214.801,141.482 			"/>
			<path style="fill:#FFFFFF;" d="M199.55,135.049l11.154,6.439l-17.025,9.829l-11.153-6.439L199.55,135.049 M199.55,132.676
				l-21.133,12.202l15.263,8.812l21.134-12.201L199.55,132.676L199.55,132.676z"/>
			<path style="fill:#FFFFFF;" d="M199.55,130.304l19.372,11.185l-25.243,14.573l-19.372-11.184L199.55,130.304 M199.55,127.932
				l-29.351,16.946l23.481,13.557l29.352-16.946L199.55,127.932L199.55,127.932z"/>
		</g>
		<path style="fill:#FFFFFF;" d="M163.505,219.586l-2.668,1.54l-4.142-2.391l2.668-1.541L163.505,219.586z M158.169,222.666
			l-2.669,1.541l-4.142-2.392l2.669-1.541L158.169,222.666z M152.832,225.747l-2.669,1.541l-4.142-2.392l2.668-1.54L152.832,225.747
			z M147.495,228.829l-2.667,1.539l-4.143-2.391l2.669-1.54L147.495,228.829z M142.159,231.91l-2.669,1.54l-4.142-2.391l2.669-1.541
			L142.159,231.91z M136.822,234.991l-2.669,1.541l-4.142-2.392l2.668-1.541L136.822,234.991z"/>
		<g>
			<path style="fill-rule:evenodd;clip-rule:evenodd;fill:#70CACC;" d="M332.933,175.141c0,0,11.195-0.92,15.925-15.037
				c4.363-13.022,11.13-16.501,21.845-13.639c10.536,2.816,8.076,15.687,0.796,24.258c-3.459,4.072-13.89,9.88-21.879,10.071
				C339.997,181.023,332.933,175.141,332.933,175.141z"/>
			<path style="fill-rule:evenodd;clip-rule:evenodd;fill:#49AFC2;" d="M443.815,59.534c-1.29-0.939-39.339,26.645-67.601,68.424
				c-5.487,8.109-6.132,13.364-3.454,14.953c4.639,2.753,19.262-5.514,35.963-29.038c6.981-9.832,16.4-21.421,22.614-31.2
				C439.661,69.572,445.107,60.474,443.815,59.534z"/>
			<path style="fill-rule:evenodd;clip-rule:evenodd;fill:#49AFC2;" d="M370.704,146.465c-0.539-0.144-1.063-0.26-1.583-0.372
				c-0.416,3.474-1.353,7.022-2.856,10.497c-6.193,14.322-19.803,22.498-31.707,19.708c2.612,1.699,8.173,4.66,15.063,4.495
				c7.989-0.192,18.42-6,21.879-10.071C378.779,162.152,381.24,149.281,370.704,146.465z"/>
			<path style="fill-rule:evenodd;clip-rule:evenodd;fill:#70CACC;" d="M376.214,127.958c-5.487,8.109-6.132,13.364-3.454,14.953
				c0.168,0.099,0.352,0.18,0.546,0.251l69.811-83.456C437.653,62.215,402.652,88.874,376.214,127.958z"/>
		</g>
		<polygon style="fill:#0078AE;" points="429.366,223.091 385.337,248.51 341.31,223.091 385.339,197.671 		"/>
		<path style="fill:#FFFFFF;" d="M384.674,213.709c-3.784,2.184-8.108,3.399-11.803,3.338l-4.383-0.17l-0.012,0.007l-3.143,1.815
			l-0.09,0.051l5.35,3.089l-7.518,4.341l16.914,9.765l7.517-4.341l5.35,3.089l0.09-0.051l3.143-1.815l0.011-0.007l-0.294-2.531
			c-0.104-2.133,1.999-4.63,5.783-6.814l6.013-3.471l-16.914-9.766L384.674,213.709z M402.769,220.003l-3.598,2.076
			c-4.442,2.564-6.914,5.576-6.781,8.265l0.002,0.038l0.004,0.038l0.152,1.304l-9.873-5.7l4.829-2.789l3.624,2.092l0.527-5.884
			l-10.191,0.305l3.623,2.092l-4.829,2.788l-7.248-4.185l-2.625-1.515l2.258,0.088l0.067,0.003l0.066,0.001
			c4.656,0.076,9.873-1.352,14.315-3.915l3.598-2.077L402.769,220.003z"/>
		<polygon style="fill:#0078AE;" points="326.002,212.48 281.974,237.9 237.947,212.48 281.974,187.061 		"/>
		<path style="fill:#FFFFFF;" d="M284.39,227.027l-2.416,1.395l-8.31-4.797c-10.644-6.146-10.262-16.364,0.849-22.779l7.46-4.308
			l2.417,1.395l-7.461,4.308c-9.78,5.645-10.16,14.613-0.849,19.988L284.39,227.027z"/>
	</g>
</g>
<g id="THE_FEATURES_2">
</g>
</svg>
