<?xml version="1.0" encoding="iso-8859-1"?>
<!-- Generator: Adobe Illustrator 21.1.0, SVG Export Plug-In . SVG Version: 6.00 Build 0)  -->
<svg version="1.1" xmlns="http://www.w3.org/2000/svg" xmlns:xlink="http://www.w3.org/1999/xlink" x="0px" y="0px"
	 viewBox="0 0 480 270" style="enable-background:new 0 0 480 270;" xml:space="preserve">
<g id="Layer_1">
</g>
<g id="The_Features">
	<linearGradient id="SVGID_1_" gradientUnits="userSpaceOnUse" x1="506.5694" y1="152.4902" x2="-18.6898" y2="152.4902">
		<stop  offset="0" style="stop-color:#49AFC2"/>
		<stop  offset="1" style="stop-color:#0078AE"/>
	</linearGradient>
	<polygon style="fill:url(#SVGID_1_);" points="272,270 480,156.566 270.992,34.98 0,187 0,270 	"/>
	<polygon style="fill:#70CACC;" points="0,268 263.673,111.291 379.938,177.068 209,270 0,270 	"/>
	<polygon style="fill:#70CACC;" points="273.416,105.734 321.835,77.78 360.57,100.144 312.151,128.098 	"/>
	<polygon style="fill:#0078AE;" points="318.331,131.563 366.75,103.608 405.486,125.972 357.066,153.927 	"/>
	<polygon style="fill:#70CACC;" points="119.85,141.941 278.258,51.951 316.993,74.315 158.585,164.305 	"/>
	<g style="opacity:0.5;">
		<path style="fill:#0078AE;" d="M232.845,107.716c0.489,3.248-1.086,5.924-4.726,8.025l-0.138,0.08
			c-2.877,1.661-6.497,2.588-10.876,2.782c-5.165,0.088-9.449-0.847-12.845-2.808c-2.691-1.553-4.296-3.47-4.816-5.749
			c-0.484-3.214,1.102-5.878,4.774-7.998c3.18-1.837,7.158-2.791,11.928-2.861c4.772,0.071,8.716,1.007,11.835,2.808l0.138,0.079
			C230.749,103.593,232.325,105.475,232.845,107.716z"/>
	</g>
	<g>
		<g>
			
				<line style="fill:none;stroke:#FFFFFF;stroke-miterlimit:10;stroke-dasharray:3,3;" x1="216.311" y1="78.776" x2="216.311" y2="108.229"/>
			<g>
				<circle style="fill:#FFFFFF;" cx="216.311" cy="108.229" r="1.88"/>
			</g>
		</g>
	</g>
	<g>
		<path style="fill:#00566A;" d="M240.158,63.235c0.665,4.411-1.475,8.043-6.417,10.896l-0.187,0.109
			c-3.906,2.255-8.822,3.514-14.767,3.777c-7.013,0.119-12.831-1.15-17.441-3.812c-3.654-2.109-5.833-4.712-6.539-7.806
			c-0.658-4.364,1.496-7.981,6.481-10.859c4.318-2.494,9.719-3.79,16.196-3.885c6.479,0.096,11.834,1.366,16.07,3.812l0.187,0.108
			C237.312,57.636,239.452,60.191,240.158,63.235z"/>
	</g>
	<g>
		<path style="fill:#FFFFFF;" d="M199.18,54.252c-10.125,5.846-10.125,15.357,0,21.202c10.125,5.845,26.598,5.845,36.723,0
			c10.125-5.846,10.125-15.356,0-21.202C225.778,48.407,209.305,48.407,199.18,54.252z M240.158,63.235
			c0.665,4.411-1.475,8.043-6.417,10.896l-0.187,0.109c-3.906,2.255-8.822,3.514-14.767,3.777
			c-7.013,0.119-12.831-1.15-17.441-3.812c-3.654-2.109-5.833-4.712-6.539-7.806c-0.658-4.364,1.496-7.981,6.481-10.859
			c4.318-2.494,9.719-3.79,16.196-3.885c6.479,0.096,11.834,1.366,16.07,3.812l0.187,0.108
			C237.312,57.636,239.452,60.191,240.158,63.235z"/>
		<path style="fill:#FFFFFF;" d="M199.021,68.944c1.15,1.582,2.64,2.903,4.461,3.954c2.027,1.171,4.53,2.086,7.511,2.753
			c4.603,0.822,8.914,0.812,12.925-0.035l0.057-0.033l-24.836-6.706L199.021,68.944z"/>
		<path style="fill:#FFFFFF;" d="M230.645,63.27c-1.825-2.2-3.255-3.596-4.291-4.195c-1.227-0.708-2.66-1.216-4.284-1.51
			c-2.785-0.32-4.569-0.713-5.362-1.171l-0.533-0.309c-0.914-1.031-0.82-1.868,0.293-2.51l0.243-0.067l-0.065-0.037
			c-5.202,0.16-9.567,1.263-13.099,3.303c-3.253,1.878-5.161,4.195-5.716,6.944c-0.118,1.627-0.024,2.76,0.299,3.403l0.119,0.068
			l0.239-0.138l4.343-2.714c0.398-0.092,0.715-0.068,0.955,0.07l0.179,0.104c0.314,0.182-0.201,0.664-1.548,1.441l-0.06,0.034
			l0.06,0.034l20.186,5.812l0.059-0.035l-6.072-7.012l-8.161-2.236l-0.359,0.138c-1.147,0.663-1.943,0.869-2.378,0.619l0.06-0.035
			c-0.24-0.138-0.319-0.299-0.244-0.48l4.111-2.166l3.692-2.339c0.242-0.094,0.538-0.08,0.897,0.035l0.178,0.102
			c0.355,0.205-0.16,0.709-1.546,1.51l-0.064,0.037l14.17,4.057c3.934,1.168,5.938,1.731,6.017,1.685L230.645,63.27z"/>
		<path style="fill:#FFFFFF;" d="M218.852,65.403l8.04,9.456c1.63-0.481,3.138-1.125,4.524-1.927
			c1.548-0.893,2.841-1.934,3.871-3.131l0.06-0.035l-10.36-2.747C220.979,65.897,218.934,65.356,218.852,65.403z"/>
		<path style="fill:#FFFFFF;" d="M222.963,53.957l1.546,0.755c0.873,0.503,1.749,1.167,2.622,1.992l9.347,11.038l0.059,0.035
			l0.062-0.036c0.276-0.615,0.476-1.329,0.592-2.132c0.245-3.528-1.665-6.464-5.714-8.801c-2.262-1.307-5.065-2.28-8.396-2.919
			L222.963,53.957z"/>
	</g>
	<g style="opacity:0.5;">
		<path style="fill:#0078AE;" d="M335.493,102.254c0.489,3.248-1.087,5.924-4.726,8.025l-0.138,0.08
			c-2.877,1.661-6.498,2.588-10.876,2.782c-5.165,0.088-9.449-0.847-12.845-2.808c-2.691-1.553-4.296-3.47-4.816-5.749
			c-0.484-3.214,1.102-5.878,4.773-7.998c3.18-1.837,7.158-2.791,11.928-2.861c4.772,0.071,8.716,1.007,11.835,2.808l0.138,0.079
			C333.397,98.131,334.973,100.012,335.493,102.254z"/>
	</g>
	<g>
		<g>
			
				<line style="fill:none;stroke:#FFFFFF;stroke-miterlimit:10;stroke-dasharray:3,3;" x1="318.96" y1="73.313" x2="318.96" y2="102.767"/>
			<g>
				<circle style="fill:#FFFFFF;" cx="318.96" cy="102.767" r="1.88"/>
			</g>
		</g>
	</g>
	<g>
		<path style="fill:#00566A;" d="M342.806,57.773c0.664,4.411-1.475,8.043-6.417,10.896l-0.187,0.109
			c-3.906,2.255-8.822,3.514-14.767,3.777c-7.013,0.119-12.831-1.15-17.441-3.812c-3.654-2.109-5.833-4.712-6.539-7.806
			c-0.658-4.364,1.496-7.981,6.481-10.859c4.318-2.494,9.719-3.79,16.196-3.885c6.479,0.096,11.834,1.367,16.069,3.812l0.187,0.108
			C339.96,52.174,342.1,54.729,342.806,57.773z"/>
	</g>
	<g>
		<path style="fill:#FFFFFF;" d="M301.828,48.79c-10.125,5.846-10.125,15.357,0,21.202c10.125,5.845,26.598,5.845,36.723,0
			c10.125-5.846,10.125-15.356,0-21.202C328.426,42.945,311.953,42.945,301.828,48.79z M342.806,57.773
			c0.664,4.411-1.475,8.043-6.417,10.896l-0.187,0.109c-3.906,2.255-8.822,3.514-14.767,3.777
			c-7.013,0.119-12.831-1.15-17.441-3.812c-3.654-2.109-5.833-4.712-6.539-7.806c-0.658-4.364,1.496-7.981,6.481-10.859
			c4.318-2.494,9.719-3.79,16.196-3.885c6.479,0.096,11.834,1.367,16.069,3.812l0.187,0.108
			C339.96,52.174,342.1,54.729,342.806,57.773z"/>
		<path style="fill:#FFFFFF;" d="M301.669,63.481c1.15,1.582,2.639,2.903,4.461,3.954c2.027,1.171,4.53,2.086,7.511,2.753
			c4.603,0.822,8.914,0.812,12.925-0.035l0.058-0.033l-24.836-6.706L301.669,63.481z"/>
		<path style="fill:#FFFFFF;" d="M333.293,57.807c-1.826-2.2-3.255-3.596-4.291-4.195c-1.227-0.708-2.66-1.216-4.284-1.51
			c-2.785-0.32-4.569-0.713-5.362-1.171l-0.533-0.309c-0.914-1.031-0.82-1.868,0.293-2.51l0.243-0.067l-0.065-0.037
			c-5.202,0.16-9.567,1.263-13.099,3.303c-3.253,1.878-5.161,4.195-5.716,6.944c-0.118,1.627-0.024,2.76,0.299,3.403l0.119,0.068
			l0.239-0.138l4.343-2.714c0.398-0.092,0.715-0.068,0.955,0.07l0.179,0.104c0.314,0.182-0.201,0.664-1.549,1.441l-0.059,0.034
			l0.059,0.034l20.187,5.812l0.059-0.035l-6.072-7.012l-8.161-2.236l-0.359,0.138c-1.147,0.663-1.943,0.869-2.378,0.619l0.06-0.035
			c-0.24-0.138-0.319-0.299-0.244-0.48l4.111-2.166l3.692-2.339c0.242-0.094,0.538-0.08,0.897,0.035l0.179,0.102
			c0.355,0.205-0.16,0.709-1.546,1.51l-0.064,0.037l14.169,4.057c3.934,1.167,5.937,1.731,6.017,1.685L333.293,57.807z"/>
		<path style="fill:#FFFFFF;" d="M321.5,59.94l8.04,9.457c1.63-0.481,3.138-1.125,4.525-1.927c1.548-0.893,2.841-1.934,3.871-3.131
			l0.06-0.035l-10.36-2.747C323.627,60.435,321.582,59.894,321.5,59.94z"/>
		<path style="fill:#FFFFFF;" d="M325.611,48.494l1.546,0.755c0.873,0.503,1.749,1.167,2.622,1.992l9.347,11.038l0.06,0.035
			l0.062-0.036c0.276-0.615,0.476-1.329,0.592-2.131c0.245-3.528-1.665-6.464-5.714-8.802c-2.263-1.307-5.065-2.28-8.396-2.919
			L325.611,48.494z"/>
	</g>
	<g style="opacity:0.5;">
		<path style="fill:#0078AE;" d="M379.254,126.417c0.489,3.248-1.086,5.924-4.726,8.025l-0.138,0.08
			c-2.876,1.661-6.497,2.588-10.876,2.782c-5.165,0.088-9.449-0.847-12.845-2.808c-2.691-1.553-4.296-3.47-4.816-5.749
			c-0.484-3.214,1.102-5.878,4.773-7.998c3.18-1.837,7.158-2.791,11.928-2.861c4.772,0.071,8.716,1.007,11.835,2.808l0.138,0.079
			C377.158,122.293,378.734,124.175,379.254,126.417z"/>
	</g>
	<g style="opacity:0.5;">
		<path style="fill:#0078AE;" d="M281.259,157.036c0.489,3.248-1.086,5.924-4.726,8.025l-0.138,0.08
			c-2.877,1.661-6.497,2.588-10.876,2.782c-5.165,0.088-9.449-0.847-12.845-2.808c-2.691-1.553-4.296-3.47-4.816-5.749
			c-0.484-3.214,1.102-5.878,4.773-7.998c3.18-1.837,7.158-2.791,11.928-2.861c4.772,0.071,8.716,1.007,11.835,2.808l0.138,0.079
			C279.163,152.912,280.739,154.794,281.259,157.036z"/>
	</g>
	<g>
		<g>
			
				<line style="fill:none;stroke:#FFFFFF;stroke-miterlimit:10;stroke-dasharray:3,3;" x1="264.726" y1="128.095" x2="264.726" y2="157.548"/>
			<g>
				<circle style="fill:#FFFFFF;" cx="264.726" cy="157.548" r="1.88"/>
			</g>
		</g>
	</g>
	<g>
		<path style="fill:#00566A;" d="M288.572,112.554c0.665,4.411-1.475,8.043-6.417,10.896l-0.187,0.109
			c-3.906,2.255-8.822,3.514-14.767,3.777c-7.013,0.119-12.83-1.15-17.441-3.812c-3.654-2.109-5.833-4.712-6.539-7.806
			c-0.658-4.365,1.496-7.981,6.481-10.86c4.318-2.494,9.719-3.79,16.196-3.885c6.479,0.096,11.834,1.366,16.07,3.812l0.187,0.108
			C285.726,106.955,287.866,109.51,288.572,112.554z"/>
	</g>
	<g>
		<path style="fill:#FFFFFF;" d="M247.594,103.572c-10.126,5.846-10.126,15.357,0,21.202c10.125,5.845,26.598,5.845,36.723,0
			c10.125-5.846,10.125-15.356,0-21.202C274.192,97.727,257.719,97.727,247.594,103.572z M288.572,112.554
			c0.665,4.411-1.475,8.043-6.417,10.896l-0.187,0.109c-3.906,2.255-8.822,3.514-14.767,3.777c-7.013,0.119-12.83-1.15-17.441-3.812
			c-3.654-2.109-5.833-4.712-6.539-7.806c-0.658-4.365,1.496-7.981,6.481-10.86c4.318-2.494,9.719-3.79,16.196-3.885
			c6.479,0.096,11.834,1.366,16.07,3.812l0.187,0.108C285.726,106.955,287.866,109.51,288.572,112.554z"/>
		<path style="fill:#FFFFFF;" d="M247.435,118.263c1.149,1.582,2.639,2.903,4.461,3.954c2.027,1.171,4.53,2.086,7.511,2.753
			c4.603,0.821,8.914,0.812,12.925-0.035l0.058-0.033l-24.836-6.706L247.435,118.263z"/>
		<path style="fill:#FFFFFF;" d="M279.059,112.589c-1.825-2.2-3.255-3.596-4.291-4.195c-1.227-0.708-2.66-1.216-4.284-1.51
			c-2.785-0.32-4.569-0.713-5.362-1.171l-0.533-0.309c-0.914-1.031-0.82-1.868,0.293-2.51l0.243-0.067l-0.065-0.036
			c-5.202,0.16-9.567,1.263-13.099,3.303c-3.253,1.878-5.161,4.195-5.716,6.944c-0.118,1.627-0.024,2.76,0.299,3.402l0.119,0.068
			l0.239-0.138l4.343-2.714c0.399-0.092,0.715-0.068,0.955,0.07l0.179,0.104c0.314,0.182-0.201,0.663-1.548,1.441l-0.06,0.034
			l0.06,0.034l20.186,5.812l0.059-0.035l-6.072-7.012l-8.161-2.236l-0.359,0.138c-1.147,0.663-1.943,0.869-2.378,0.619l0.06-0.035
			c-0.24-0.138-0.319-0.299-0.244-0.48l4.111-2.166l3.692-2.339c0.242-0.094,0.538-0.08,0.897,0.035l0.179,0.102
			c0.355,0.205-0.16,0.709-1.546,1.51l-0.064,0.037l14.169,4.058c3.934,1.167,5.938,1.731,6.017,1.685L279.059,112.589z"/>
		<path style="fill:#FFFFFF;" d="M267.266,114.722l8.04,9.456c1.63-0.48,3.138-1.125,4.524-1.927
			c1.548-0.893,2.841-1.934,3.871-3.131l0.06-0.035l-10.36-2.747C269.393,115.217,267.349,114.676,267.266,114.722z"/>
		<path style="fill:#FFFFFF;" d="M271.377,103.276l1.546,0.755c0.873,0.503,1.749,1.166,2.622,1.992l9.348,11.038l0.059,0.035
			l0.062-0.036c0.276-0.615,0.476-1.329,0.592-2.132c0.245-3.528-1.665-6.464-5.714-8.802c-2.262-1.307-5.065-2.28-8.396-2.919
			L271.377,103.276z"/>
	</g>
</g>
<g id="THE_FEATURES_2">
</g>
</svg>
